<svg xmlns="http://www.w3.org/2000/svg" width="231" height="146" viewBox="0 0 231 146">
  <g fill="none" fill-rule="evenodd" transform="translate(-9 -12)">
    <path fill="#4545C9" d="M122.969183,194.168771 C122.737612,193.681084 123.031612,192.846574 122.385987,192.63101 C122.542858,193.44471 122.078114,193.988423 122.969183,194.168771 Z M122.385987,191.60708 C122.190699,190.976929 122.627696,190.696269 121.997011,190.45456 C121.967664,190.944381 122.007683,191.387248 122.385987,191.60708 Z M122.192299,190.326502 C122.130938,189.938594 122.405729,189.327117 121.80279,189.302573 C121.604834,189.470115 121.594162,190.289685 122.192299,190.326502 Z M121.609103,182.63983 C121.741429,182.207102 121.282021,182.170285 120.832218,182.127599 C120.742044,182.525645 121.000828,182.696923 121.609103,182.63983 Z M151.724037,163.291358 C152.790119,162.297309 152.697277,160.825711 151.918792,159.705739 C151.728839,161.078626 151.845692,162.297309 151.724037,163.291358 Z M128.602128,153.427703 C128.37109,153.807608 129.421698,153.979419 129.574834,153.682752 C129.349132,153.661409 129.363538,153.481594 129.380613,153.298045 C129.042326,153.28684 128.776606,153.327391 128.602128,153.427703 Z M154.833175,148.816554 C154.918013,148.329401 154.447934,148.213615 154.248911,147.915881 C153.655043,147.825173 153.679054,148.140515 153.084118,148.045006 C153.15455,147.188085 152.702613,146.672119 152.500921,145.995013 C151.835021,148.722112 153.490168,150.960456 152.3067,153.171054 C153.297548,153.858298 152.529734,155.578542 152.3067,155.987793 C152.347786,155.845329 152.523332,155.790904 152.694609,155.732745 C153.009418,156.207092 152.858416,156.994648 152.889897,157.655746 C154.530638,157.09656 154.244642,155.819184 153.277806,154.964397 C154.331081,155.035363 154.838511,155.47236 155.415304,155.859735 C155.350208,155.390723 156.122824,155.47236 156.581164,155.348037 C156.656932,155.014553 156.680943,154.645854 156.970674,154.450565 C157.370321,155.043366 157.270542,154.125619 157.941245,153.939401 C158.061299,154.287292 157.694734,154.956394 158.135466,155.091922 C159.128982,154.327843 158.544184,153.079813 159.689235,152.273582 C159.40644,151.234713 160.33646,149.456843 159.300259,149.456843 C159.403772,149.672407 158.442272,149.518738 157.553337,149.712959 C157.096597,149.66974 157.11794,149.314379 156.775385,149.200194 C156.397615,149.735369 155.038067,148.471865 154.833175,148.816554 Z M152.889897,145.355258 C152.584159,145.344586 152.738362,145.029777 152.3067,145.098608 C152.045249,145.729293 152.411815,145.995013 152.889897,145.355258 Z M146.672156,145.098608 C146.553702,144.835556 146.985364,144.209673 146.284247,144.330795 C146.402167,144.594381 145.970505,145.220263 146.672156,145.098608 Z M168.238163,139.077222 L168.821359,139.077222 C168.877385,138.78429 168.774938,138.597539 168.433451,138.563924 C168.37209,138.736268 168.155992,138.809368 168.238163,139.077222 Z M167.654966,139.716978 C167.573862,139.409639 168.328337,138.678108 167.461278,138.436399 C167.231308,138.845651 167.230241,139.58145 167.654966,139.716978 Z M167.461278,138.309409 C168.119709,138.312076 168.242431,137.295084 167.850254,137.027763 C167.545049,137.576278 167.227573,137.624299 167.461278,138.309409 Z M169.791931,135.875776 C169.921589,135.388089 170.298293,134.470341 169.404556,134.339082 C169.008644,134.836373 169.486726,135.25683 169.791931,135.875776 Z M184.5586,131.902248 C184.849932,131.528213 185.10498,131.144573 184.364379,131.004776 C184.480165,131.272097 184.125872,131.846756 184.5586,131.902248 Z M154.833175,128.572211 C154.607473,128.153889 155.425442,127.782521 154.833175,127.548282 C154.789422,127.785722 154.331081,128.396131 154.833175,128.572211 Z M185.336018,127.035517 C185.505695,126.621463 185.037216,126.633202 184.753888,126.524886 C184.465758,126.698831 184.651976,127.129959 185.336018,127.035517 Z M170.569349,124.855332 C170.585356,125.334482 170.787047,125.220831 170.569349,125.623146 C171.519111,125.521233 171.867001,124.825986 171.153613,124.471692 C170.945519,124.591213 171.092252,124.947107 170.569349,124.855332 Z M156.385876,120.244716 C156.33572,119.866946 156.826608,119.849871 156.775385,119.475836 C156.52674,119.469433 156.506464,119.310961 156.192189,119.348312 C155.853369,119.568678 155.977158,120.138535 156.385876,120.244716 Z M183.39274,116.271188 L183.39274,117.039002 C183.622177,117.18947 184.080518,117.185735 184.5586,117.167593 C184.273672,116.611609 184.755489,116.293065 184.169625,115.887548 C184.048503,116.249312 183.90924,116.030546 183.39274,116.271188 Z M154.442598,126.65081 C155.457457,125.725592 155.025795,124.082716 155.025795,122.550291 C155.025795,119.750627 154.726994,117.515484 155.025795,115.502841 C154.801694,115.480965 154.8161,115.301684 154.833175,115.119735 C154.789422,115.018889 154.671502,114.9682 154.442598,114.99061 C154.251579,118.345725 154.300668,123.552344 154.442598,126.65081 Z M183.003765,112.429453 C183.829738,112.546306 183.981273,112.220292 184.169625,111.917756 C183.824402,111.803571 183.676602,111.559727 183.003765,111.661106 C182.642535,111.887875 183.163303,111.98712 183.003765,112.429453 Z M162.993127,116.655896 C163.166539,120.271395 164.892118,123.709748 163.965299,127.035517 C164.592249,127.595236 163.965299,129.780223 164.934804,130.749728 C165.318444,128.59142 165.027646,125.729327 165.130092,123.062522 C165.164774,122.17252 165.650861,121.3903 165.711688,120.500832 C165.812534,119.070853 165.482251,117.485604 165.32378,116.014539 C165.091675,113.856231 165.266687,111.668043 164.740583,109.607912 C164.492471,109.605778 164.471128,109.44784 164.15792,109.479854 C163.902871,111.07204 162.901352,114.766509 162.993127,116.655896 Z M92.0762974,96.4152872 C91.8634013,95.8993208 92.7096501,95.4271076 91.8820764,95.2627667 C91.7662907,95.7232413 91.5608646,96.1143513 92.0762974,96.4152872 Z M182.227948,99.232026 C181.994242,99.6354082 181.507622,99.8691138 181.645818,100.512604 C181.689571,100.75378 181.963295,100.438971 182.032659,100.640662 C181.570051,103.219961 183.166505,105.814199 182.421635,108.071752 C182.975485,109.486791 182.785533,110.103069 183.586428,111.149409 C184.335566,111.086447 184.192568,110.433885 184.753888,110.253004 C184.72721,110.908233 184.781634,111.514907 185.141797,111.917756 C185.220232,111.697923 185.39151,111.942834 185.726061,111.917756 C185.473147,108.492742 184.945442,105.979073 184.753888,102.693856 C183.275354,101.748896 184.884614,100.00731 183.39274,99.1039682 C183.828137,98.6338892 183.159035,98.12646 183.586428,97.5678077 C183.205456,97.5272561 183.202788,97.7396187 183.003765,97.8233898 C183.54641,96.568423 183.622177,95.0829521 183.003765,93.7212704 C182.511809,93.9523081 183.198519,94.9618307 182.421635,95.0050503 C182.173523,94.9991809 182.151647,94.8417765 181.838438,94.8780596 C181.69544,94.3738318 182.248757,93.4107302 181.256842,93.4662219 C181.747197,95.7275099 181.520962,97.8484678 182.227948,99.232026 Z M92.2699849,95.0050503 C92.3430846,94.7393303 91.7054633,93.6481708 92.0762974,93.2106398 C90.9360491,93.2864074 91.7449478,95.2408901 92.2699849,95.0050503 Z M183.003765,93.5942798 C183.367129,93.1172643 182.651606,93.1145964 183.003765,92.4422928 L182.421635,92.4422928 C182.66868,93.0729776 182.047066,93.4806284 183.003765,93.5942798 Z M168.238163,92.8259327 C169.055065,92.4364235 169.49473,91.4610496 169.016647,90.9050652 C168.916869,91.5672309 167.891339,92.2944927 168.238163,92.8259327 Z M159.106572,92.5687499 C160.251088,91.8510925 160.113426,89.3859791 159.300259,88.3428413 C159.281584,90.0225333 159.601729,91.1430393 159.106572,92.5687499 Z M181.062621,89.6239532 C180.864665,89.2755292 181.158665,88.0899271 180.284136,87.8322107 C180.080845,88.5189208 180.364173,89.6602363 181.062621,89.6239532 Z M94.9901468,88.8561398 C94.955998,88.0803227 95.4495543,88.7670329 95.7675646,88.8561398 C95.6170966,88.4420861 95.3620481,88.0979307 94.9901468,87.8322107 C94.7847207,87.9634699 94.5894325,88.7462235 94.9901468,88.8561398 Z M149.78076,87.3183786 C149.748212,87.1241575 149.850658,86.8429639 149.586539,86.8024122 C149.702324,92.2027179 150.346348,98.1414001 150.946619,103.077496 C151.093886,104.285508 151.010648,105.561285 151.336129,106.535591 C151.411896,106.764495 151.893714,107.065431 151.918792,107.303405 C151.941202,107.533909 151.497802,108.551435 151.529283,108.968157 C151.733108,111.657371 152.988075,114.174775 153.665714,116.655896 C153.825253,110.684132 153.949042,105.80993 153.665714,101.151826 C153.36051,96.0999448 151.015984,90.8490399 149.975514,86.1626566 C149.483025,86.4470517 150.575252,87.3039721 149.78076,87.3183786 Z M159.689235,87.0585279 C159.689235,86.5505651 160.077143,86.2901809 160.077143,85.7779495 C159.800752,85.7491365 159.748995,85.5698555 159.493947,85.5218339 C159.680164,86.3494076 158.995055,86.7773342 159.689235,87.0585279 Z M94.6022383,87.4475036 C95.1310104,88.0723191 95.451155,85.9460254 94.7964593,85.393776 C94.5067285,86.0783519 95.052575,86.7367826 94.6022383,87.4475036 Z M94.9901468,85.0090689 C95.4340806,85.0464191 95.72061,84.9807895 95.7675646,84.7534868 C95.3791225,84.625429 95.4618265,84.1873645 94.7964593,84.2412555 C94.740434,84.632899 95.4191406,84.7390803 94.9901468,85.0090689 Z M159.883456,85.393776 C159.66309,84.1900323 160.616587,83.3629921 159.493947,82.5765036 C159.96029,83.6927411 158.616217,84.6211604 159.883456,85.393776 Z M87.6076125,81.5520409 C87.4758196,81.2126876 87.3008073,80.8968116 87.022815,80.6567032 C87.0804411,81.0435446 86.9924013,81.5306979 87.6076125,81.5520409 Z M159.300259,81.168401 C159.66309,81.1497259 159.95122,81.0840962 160.077143,80.9122853 C159.810356,80.7479444 160.026987,80.644431 160.077143,80.2719961 C159.226092,80.1764863 159.300259,80.6961877 159.300259,81.168401 Z M87.6076125,79.8883562 C88.0579492,80.7623509 87.6636378,81.179606 88.5787178,82.0653394 C88.4245148,81.0510146 88.1481233,80.5857378 88.5787178,79.6311733 C88.3300721,79.6242369 88.3087291,79.467366 87.9971217,79.5041827 C87.9768459,79.7037394 88.0216662,79.9465158 87.6076125,79.8883562 Z M92.4652731,80.5281118 C93.4427813,79.8883562 92.8014249,78.4103553 92.8542488,77.7076379 C92.8110293,77.6083931 92.6893743,77.5603714 92.4652731,77.5790465 C92.6819043,78.6798103 92.4332586,79.3051594 92.4652731,80.5281118 Z M171.93103,79.115207 C172.19515,78.8148046 172.293327,77.7396524 171.93103,77.4499215 C171.826983,77.9530821 171.293409,78.5816327 171.93103,79.115207 Z M91.1051922,81.936748 C90.7476974,80.626823 90.978735,78.2305407 89.9403994,77.3229308 C90.3875347,78.8558899 90.1367548,80.5361154 91.1051922,81.936748 Z M90.7156829,76.9392909 C91.6190242,77.0929603 91.649438,76.4307946 90.9109711,76.426526 C90.9243105,76.6490265 90.867218,76.8256396 90.7156829,76.9392909 Z M89.9403994,76.1704103 C90.2173245,75.6603132 90.2311974,75.2147787 89.5492894,75.0173562 C89.5578266,75.482633 89.442041,76.0274124 89.9403994,76.1704103 Z M161.050916,76.9392909 L161.826733,76.9392909 C162.417934,76.0023344 162.12927,75.0547064 161.826733,73.8648356 C161.150161,74.0734632 160.883908,74.0857354 160.46772,74.6331827 C161.190179,74.7687105 161.095203,74.3631941 161.438825,74.2495427 C160.66034,75.1752942 161.724287,76.0311474 161.050916,76.9392909 Z M89.5492894,74.5051248 C89.8400874,74.0990748 89.7899315,73.4956022 89.1619145,73.3536714 C89.334259,73.9640805 89.0130472,74.3221088 89.5492894,74.5051248 Z M92.4652731,73.6092535 C92.3932406,73.1002236 92.9193449,72.8270336 92.2699849,72.5842573 C92.0373465,72.9390842 92.048018,73.3643429 92.4652731,73.6092535 Z M92.4652731,72.4556659 C92.8515809,72.1344541 92.5725215,71.4354718 92.0762974,71.3004775 C92.1611357,71.717199 91.8196482,72.4092449 92.4652731,72.4556659 Z M177.565042,73.6092535 C177.553303,73.7116998 177.001054,73.7746616 177.756595,73.6092535 C177.669089,77.4440522 180.227578,80.3963189 179.118276,83.7295577 C180.587207,84.7172038 179.348247,86.5575016 180.673646,87.3183786 C179.977331,81.1497259 179.072923,75.9985994 177.565042,70.1474234 L176.591802,70.1474234 C176.170812,71.0144816 177.649346,72.7453967 177.565042,73.6092535 Z M173.872707,70.7882461 C174.037048,70.3149657 174.012504,69.4703175 173.289511,69.764317 C173.816682,69.8886398 173.106495,70.8245292 173.872707,70.7882461 Z M174.84488,70.1474234 C175.227453,70.0118955 175.175696,69.086144 174.454837,69.2515521 C174.133092,69.4777876 174.17311,70.19171 174.84488,70.1474234 Z M174.261683,68.99597 C175.24346,69.0455924 174.768579,68.1609262 174.261683,68.0979644 C174.006634,68.4976115 174.313973,68.4639964 174.261683,68.99597 Z M94.2132626,63.8725893 C93.6289987,64.0011807 93.8691071,63.5839256 93.8253541,63.356623 C92.6536248,63.3795667 93.8691071,64.2679679 92.8542488,64.2572964 C93.4625235,64.4515175 93.9261996,64.2204798 94.2132626,63.8725893 Z M97.3218666,81.168401 C97.8223593,81.179606 97.5987917,81.6656922 98.0998179,81.6806323 C98.2086671,78.4274297 97.1324477,75.884948 97.5166212,71.6841174 C96.7274648,71.5790033 97.059348,71.0075452 97.1287127,70.5321304 C97.0705531,70.3309729 96.6335557,70.2317281 96.5460495,70.0198991 C96.1058507,68.9772949 97.0966982,67.3888441 95.5744107,66.178164 C96.4734834,68.1427846 95.0483064,69.028518 94.6022383,70.5321304 C94.0627946,68.4319819 94.8796969,66.0714491 93.4358448,64.3853543 C92.8638531,65.7982591 93.4497177,68.1972092 94.0190415,69.5071342 C93.9923628,69.8000665 92.8505138,70.0038919 93.4358448,70.2765483 C93.4785307,70.1335504 93.6514088,70.0785923 93.8253541,70.0198991 C94.0788019,73.1845284 94.7110874,78.5517525 94.4074836,81.936748 C95.6677862,82.0402614 94.4202894,83.0049638 94.7964593,83.4729085 C95.4906395,83.462237 95.8988239,83.7108826 95.9612521,84.1137312 C96.3608992,83.9376517 96.5017629,84.1542829 96.7392034,83.7295577 C97.0689524,84.0256915 97.2295582,84.4328087 98.0998179,84.3693133 C97.6996372,83.8213325 97.4344508,83.1847783 96.9323573,82.7045614 C98.2273422,82.1555135 97.6147989,81.9410166 97.3218666,81.168401 Z M91.6867882,59.3862964 C92.0218728,59.6178677 92.4519338,59.3468119 92.4652731,59.0026565 C91.9562432,58.966907 91.628095,59.0501446 91.6867882,59.3862964 Z M146.089492,60.284302 C146.478468,59.6248042 146.640675,59.0752226 145.894738,58.4909587 C146.122574,59.2224891 145.451871,60.0415257 146.089492,60.284302 Z M167.654966,56.0578598 C168.766935,55.8412286 167.862526,55.2671027 168.043408,54.6454886 L167.461278,54.6454886 C167.507699,55.4106342 167.478353,55.5157483 167.654966,56.0578598 Z M91.6867882,52.3404475 C92.1702065,53.0431649 91.943971,53.9278311 91.8820764,54.6454886 C92.6125396,54.7441998 92.5394399,54.3125382 92.8542488,54.1327237 C92.0586895,53.8734065 93.340335,52.2822879 92.0762974,52.0848654 C92.0533537,52.2417363 92.019205,52.3879356 91.6867882,52.3404475 Z M144.729411,51.7006919 C145.049022,51.5278138 144.701132,50.2472355 144.534657,50.4190464 C144.734214,51.0406605 144.072581,51.4728557 144.729411,51.7006919 Z M157.358582,48.370121 C157.585351,48.3887961 157.909764,48.3493116 157.941245,48.499246 C158.018614,48.8065848 157.056579,48.4250791 157.358582,48.8823523 C158.628489,49.2259742 157.529326,50.3891662 158.135466,51.0593356 C158.16588,50.9094012 158.101851,50.6938372 158.329154,50.6746285 L158.329154,52.0848654 C159.454462,51.6708117 158.685048,50.0135299 158.91075,49.0104102 C157.449823,48.4682987 159.038808,47.0127079 158.135466,46.316927 C157.976995,47.0676661 157.56134,47.6492621 157.358582,48.370121 Z M144.923099,47.5985725 C145.078369,47.0249801 144.965785,46.7523237 144.923099,46.0613449 C144.66645,46.0613449 144.744885,45.8372437 144.534657,45.8046957 C144.49784,46.8078154 144.536258,49.0392232 144.923099,47.5985725 Z M163.382103,46.0613449 C163.544309,45.9151455 163.637151,45.7182566 163.57579,45.4210557 C163.34582,45.2759235 162.887479,45.2759235 162.408863,45.2929979 C162.153815,45.5261699 162.591345,46.1237731 163.382103,46.0613449 Z M157.745957,45.677705 C158.563926,45.5971352 158.001006,45.0918404 158.329154,44.9098915 C157.633373,44.8357247 157.738487,45.2897964 157.745957,45.677705 Z M153.277806,73.9928935 C153.105995,71.3282233 152.884561,68.4021017 152.111412,67.0740353 C152.416083,67.0847067 152.24694,66.7010668 152.111412,66.946511 C151.541555,66.5666061 150.202817,65.596568 150.363956,64.6409364 C150.768939,64.7145696 150.991973,64.9082571 151.336129,65.0256434 C151.50047,64.7252411 150.655821,64.4728604 151.140307,64.3853543 C151.430038,64.4515175 151.370277,64.5123449 151.918792,64.6409364 C151.946004,63.8875294 151.042129,63.6607603 151.918792,63.2280316 C152.110345,62.7200688 151.337196,62.8443916 151.529283,62.3326938 C152.132755,62.2003674 151.665344,61.5312652 152.111412,61.052649 C150.927944,60.7036914 151.91399,58.3623673 151.529283,56.9537311 C151.384684,56.4238918 150.590725,55.3450045 150.558711,56.1816491 C149.947768,53.8141798 150.599796,51.3896181 149.586539,49.2670594 C149.217305,51.6265251 149.22104,54.3264111 148.614366,56.1816491 C148.672526,52.0181686 149.672444,48.4763023 149.197563,45.0363486 C148.065852,45.2711213 148.491644,44.4771627 148.421746,44.0124195 C145.437998,45.2679199 147.222271,50.8331001 146.089492,52.4685054 C146.093227,52.6808679 146.628402,52.5410715 146.672156,52.724621 C146.501945,54.9240144 146.829026,57.8464009 147.643261,59.5154214 C148.081325,59.3862964 147.222271,58.8164391 147.836948,58.618483 C148.130414,59.6210691 147.645929,61.0040938 148.225924,61.6918711 C148.363053,60.0943496 148.647448,58.4578771 148.614366,56.9537311 C148.417477,57.5908188 149.016681,57.5033127 149.197563,57.5945539 C148.938246,60.3392602 148.840068,62.8337201 149.004409,65.4103505 C149.086046,66.7053354 148.87315,68.2190858 149.197563,69.5071342 C149.805838,71.9258266 151.364942,74.4144172 150.753999,76.9392909 C152.551077,79.5329957 151.903318,83.4115474 153.861002,86.1626566 C153.632633,82.2590269 153.565936,78.4829214 153.277806,73.9928935 Z M98.6824811,48.499246 C98.9204552,46.9246682 97.3917648,45.2417747 97.9039962,43.1160146 C97.1804694,43.1053432 96.9611703,43.4340249 96.5460495,43.628246 C97.3202659,44.1292723 96.6415593,44.8234525 97.5166212,45.2929979 C96.8736642,45.1067804 96.5615232,45.3143409 97.1287127,45.5491136 C96.5775304,45.4173207 96.3187469,45.4173207 95.7675646,45.5491136 C96.0807727,45.2460433 96.0781048,44.730077 96.3502277,44.3971266 L95.5744107,44.3971266 C95.6677862,45.1355935 94.9965497,46.3067891 95.9612521,46.9572162 C95.9655207,46.5623712 96.1698796,46.0245283 96.9323573,45.8046957 C97.2007452,46.3249306 96.585534,46.259301 96.3502277,46.446052 C97.5240913,48.2938199 97.2428976,50.1922773 97.9039962,52.4685054 C98.351665,51.8143432 98.2593567,49.9948548 98.2935054,48.8823523 C98.5976428,48.9378441 98.459447,49.2846674 99.0719904,49.138468 C99.2048504,48.3957326 97.6505484,48.8898224 98.2935054,48.2388617 C98.3148484,48.3957326 98.3511314,48.5419319 98.6824811,48.499246 Z M96.1570738,43.628246 C96.0743698,43.8710223 95.738218,43.9510585 95.7675646,44.2680016 L96.5460495,44.2680016 C96.5732618,43.9510585 96.4462711,43.7381623 96.1570738,43.628246 Z M159.300259,43.8838281 C159.187141,43.4889831 159.25117,42.9767518 158.524442,42.989024 C158.601277,43.4057455 158.693051,43.8155306 159.300259,43.8838281 Z M158.524442,42.7313076 C158.516972,42.1801253 158.272595,41.7879482 157.941245,41.4480613 C157.836665,42.0734104 158.025016,42.5050721 158.524442,42.7313076 Z M161.438837,46.0613449 C161.44256,44.7658265 160.548823,42.2740344 159.493947,41.1951471 C160.447977,42.493867 160.235615,45.0838367 161.438837,46.0613449 Z M157.941245,40.1674829 C158.041024,39.6877996 158.187223,39.5848198 157.553337,39.3991359 C156.662268,39.9295088 157.273744,40.8147086 157.941245,41.3237385 C158.342493,40.7234674 157.189439,39.8046524 157.941245,40.1674829 Z M90.3267072,38.118024 C90.0743266,37.7237126 90.4809102,37.6201991 89.9403994,37.349677 C89.7819278,37.4510561 89.7339062,38.1361655 90.3267072,38.118024 Z M161.438825,33.1200333 C161.352386,32.8788577 161.702944,32.3484848 161.050916,32.4834791 C160.923392,32.7950865 160.657672,33.1419099 161.438825,33.1200333 Z M139.094867,38.2466154 C139.151426,37.0647483 139.567613,36.4458021 138.512737,35.6854586 C139.334975,34.7218234 138.364937,32.9263458 137.346344,32.6083355 C137.422111,34.6503245 137.885787,36.2889312 139.094867,38.2466154 Z M93.0484698,34.148231 C93.0148547,33.4930018 94.0814697,32.3111346 93.0484698,31.8399885 C92.6088046,32.6953082 92.1835459,33.6392011 93.0484698,34.148231 Z M138.900112,30.8144587 C138.165914,30.2814179 139.754364,30.533265 139.289621,30.3032945 L138.512737,30.3032945 C138.55649,30.52953 138.316382,30.9435837 138.900112,30.8144587 Z M137.92954,31.8399885 C138.094415,31.3277572 138.528744,30.9179721 137.735319,30.5588766 C137.35328,30.9537216 137.215084,31.5982793 137.92954,31.8399885 Z M137.540565,30.687468 C138.499398,30.3699913 137.225756,28.6081288 137.346344,28.8941247 C137.422111,29.6950197 136.972842,30.1378864 137.540565,30.687468 Z M155.997968,28.2543691 C156.809534,28.1188412 157.314295,28.5243577 157.745957,28.2543691 C157.159025,27.2731259 156.780721,26.1563548 155.80428,25.4333616 C156.127093,26.2849463 155.605257,27.1018485 155.997968,28.2543691 Z M162.21731,29.9196545 C160.693422,30.0797268 162.316555,29.3039098 162.21731,29.7905295 C162.533186,28.2762456 159.956555,25.2695543 159.106572,24.0236583 C159.437388,25.7775171 160.787864,26.6515118 160.661941,27.998787 C159.957623,26.8820159 159.549972,25.5678224 158.524442,24.6650146 C158.494028,25.8500832 159.497682,27.9795783 160.661941,28.3824269 C160.640598,28.6241361 160.018984,28.4699331 160.077143,28.7666004 C160.811875,28.7516603 160.367941,29.5162723 161.050916,29.5349474 C161.066924,29.3332564 161.023171,29.0920808 161.438825,29.1502404 C161.3828,29.8492227 161.769107,30.0429102 161.243537,30.4302852 C161.863017,31.2583925 161.630378,33.200603 162.993127,33.1200333 C162.812245,34.897903 164.872376,36.3695009 164.546895,38.3736061 C163.226832,37.4083701 163.226832,35.5718073 162.020421,34.531871 C162.390722,35.0777175 161.998011,35.6822572 162.020421,36.3246807 C162.068443,37.5545695 162.922695,38.9157176 162.020421,39.3991359 C162.337898,39.1243452 162.040697,38.4392357 161.243537,38.5021975 C161.752567,40.8035035 162.688456,42.7275725 163.382103,45.1654736 C164.486068,45.3773026 164.988161,44.5251844 165.519068,44.7807665 C164.827022,45.2204318 165.839746,45.5421771 165.519068,46.446052 C166.292217,46.5773113 167.178484,46.632803 168.043408,46.7016341 C168.485207,46.6103929 167.865194,45.8159007 168.627138,45.9338206 L168.627138,46.9572162 C168.509218,47.1370307 167.878533,46.9801599 167.850254,47.2138654 C168.095165,47.2325405 168.380627,47.1957239 168.433451,47.3429904 C168.932876,48.764966 167.798497,50.1309163 167.654966,51.5715669 C167.638959,51.7327064 168.041807,51.9589419 168.043408,52.0848654 C168.053546,52.5826903 167.603209,53.0431649 167.654966,53.4924345 C167.758479,54.3781679 168.873116,55.03233 168.627138,56.0578598 L169.987753,56.0578598 C169.409892,56.5290059 170.761435,56.5876991 170.957257,56.9537311 C169.903448,57.2616035 169.571565,57.7258131 169.987753,58.4909587 C170.278551,58.5123017 170.704877,58.442937 170.764637,58.618483 C171.674381,62.0104149 172.6028,65.0069683 174.454837,67.9709737 C174.088271,61.3370442 172.369095,54.063359 170.764637,48.1108039 C170.552274,47.3237817 170.982335,46.3617472 169.791931,45.8046957 C170.278551,45.2567148 169.774857,43.8811602 169.404556,42.7313076 C168.525225,39.9951384 167.556788,37.3021888 166.296486,35.3007516 C166.026497,35.3781198 166.266605,35.7959085 165.906976,35.8135165 C165.569757,34.855217 165.53134,34.4406298 164.740583,33.8926489 C164.621062,34.2394722 164.988161,34.9059066 164.546895,35.0451695 C164.26837,33.6728163 164.716572,31.1810242 162.408863,30.0461116 C161.92331,30.2707464 162.826652,30.903032 161.632512,30.8144587 C162.16662,30.5113885 161.642117,30.2515378 162.21731,29.9196545 Z M158.329154,24.4083654 C158.305677,23.9553608 158.137067,23.5962652 157.553337,23.5124941 C157.539464,23.9916438 157.865478,24.2477595 158.329154,24.4083654 Z M155.415304,24.2803075 C155.130909,23.9985803 155.438782,23.3289445 154.833175,23.2558448 C155.106898,23.7349946 154.506627,24.1229031 155.415304,24.2803075 Z M156.192189,23.5124941 C155.76693,25.00917 158.492961,26.153687 158.329154,27.4860221 C158.486025,25.7508384 157.002154,24.0108525 155.608992,22.8711377 C155.343272,23.3913727 155.958483,23.3257431 156.192189,23.5124941 Z M137.152656,22.6155556 C137.250834,24.5588333 138.18619,27.324349 138.317449,29.6619381 C139.037241,29.5717641 139.151426,29.8817708 139.872818,29.7905295 C140.363173,28.0494765 139.251204,26.2774762 138.512737,24.9243317 C138.522875,25.1430972 138.362269,25.2498121 138.123228,25.3085052 C137.818023,24.2691025 138.839285,23.4132493 137.152656,22.6155556 Z M162.993127,23.7680762 C163.015537,23.1566 163.004866,22.5643325 162.603618,22.2308486 C161.95159,22.6785174 162.238653,23.5482436 162.993127,23.7680762 Z M155.80428,22.6155556 C155.313925,21.9576585 155.142648,21.0857981 154.248911,20.6946881 C154.627215,21.4006069 154.988979,22.9895912 155.80428,22.6155556 Z M151.336129,17.2328579 C151.117897,16.4383657 151.02132,15.5617031 149.975514,15.3119903 C150.56298,15.8647733 150.35702,16.9409927 151.336129,17.2328579 Z M152.500921,16.0803374 C154.360428,16.4356979 153.334898,18.6927172 155.415304,18.9024119 C155.230154,17.7050712 155.42811,17.0103574 154.248911,16.0803374 C154.730729,15.5942511 154.824104,16.2468125 155.221083,15.9533467 C153.813514,15.4731298 153.45602,14.2992663 152.111412,13.7758299 C151.090151,14.4998902 153.158285,15.1001613 152.500921,16.0803374 Z M69.343897,11.3432645 C69.0685727,10.4970157 69.1363366,9.42986701 68.5670128,8.77783919 C68.7927148,9.65556895 68.4458915,10.9078679 69.343897,11.3432645 Z M152.111412,8.13755 C152.31257,7.61784862 151.433773,6.70703725 150.946619,6.2177496 C151.257693,6.90766119 151.313185,7.767783 152.111412,8.13755 Z M106.25977,4.80751266 L107.037721,4.80751266 C107.021714,4.43080919 106.966222,4.08398588 106.25977,4.16829063 C105.89694,4.41320124 106.375022,4.39826116 106.25977,4.80751266 Z M107.620385,4.68052198 C107.983749,4.67251836 108.029636,4.77923322 107.813538,4.93610408 C108.71688,5.01987524 108.910567,4.63570173 108.785711,4.03916564 C107.992819,3.98367391 107.55849,4.17149207 107.620385,4.68052198 Z M107.424563,3.91217495 C107.941063,3.90790636 108.569613,3.98153961 108.59149,3.6555257 C108.2452,3.54187437 108.097934,3.29643019 107.424563,3.3999436 L107.424563,3.91217495 Z M113.642838,1.7314567 C113.279474,1.92140916 113.126338,2.24742307 112.475911,2.24742307 C112.175509,2.69989409 113.137009,2.3237242 113.059108,2.63159658 C112.636517,2.60545144 112.441762,2.73350928 112.475911,3.01523652 C113.244791,2.9928264 112.413483,3.20999115 112.865954,3.3999436 C113.254929,3.42768947 113.652442,2.82848551 114.03128,3.27135219 C113.448083,3.31137027 113.032429,3.46557325 112.865954,3.78358354 C112.905972,3.93778652 113.081518,3.86041824 113.252795,3.78358354 C113.243191,3.94845801 113.00575,3.95859592 113.059108,4.16829063 C113.665782,3.92658146 114.316742,3.71421888 114.420256,3.1443615 C114.300735,2.96454696 113.672718,3.12141781 113.642838,2.88717868 C114.30447,2.38988741 113.586279,2.34506717 113.642838,1.7314567 Z M92.2699849,1.47480745 C92.1798108,1.87765606 92.4385944,2.05000057 93.0484698,1.9870388 C92.9316171,1.58045517 93.4107668,1.5921938 93.0484698,1.34674961 C92.6803036,1.32113805 92.6194761,1.49348255 92.2699849,1.47480745 Z M98.8767022,-0.189410857 C100.574536,3.23506914 101.604868,6.81321854 104.121204,9.54565264 C103.67567,7.96147048 104.750288,5.37470217 102.76219,4.80751266 C102.237687,4.25633039 102.290511,3.32204175 101.595797,2.88717868 C102.081883,1.92407703 102.74565,1.0831639 103.345387,0.19422908 C102.735512,0.0224181485 102.774996,-0.0618865943 103.151166,-0.446060106 C101.72172,-0.577319389 99.8173937,-0.708578672 98.8767022,-0.189410857 Z M113.448083,1.60766746 C113.315223,0.453012626 113.115666,-0.653620517 112.28169,-1.34193139 C112.349454,-0.441791511 112.132823,0.998859157 113.448083,1.60766746 Z M101.595797,-1.08634929 C102.593047,-0.676564213 103.834141,-1.05326768 104.899156,-0.830233617 C104.993598,-2.11774846 102.093622,-1.78479808 101.595797,-1.08634929 Z M110.922676,-3.90415528 C109.551924,-3.32255927 111.505873,-1.57670409 111.116897,-0.830233617 C112.073596,-0.562912882 111.434374,1.4342558 112.475911,1.21869178 C111.914057,-0.244902587 111.064073,-2.20258677 110.922676,-3.51998177 C111.901785,-3.43140843 110.933881,-2.85354744 111.505873,-2.49391835 C112.108812,-3.50504169 111.017119,-5.0342657 110.340013,-5.18420008 C110.552375,-4.79682512 110.35602,-4.30647032 110.922676,-3.90415528 Z M105.482352,-4.15973738 C105.471681,-5.84583224 104.934905,-7.42734653 103.92805,-8.51743887 C103.634584,-7.03143438 104.834059,-5.44831937 105.482352,-4.15973738 Z M128.018931,-7.74962542 C127.967708,-8.18395492 128.172067,-8.78742747 127.826844,-9.02913664 L127.243647,-9.02913664 C127.578198,-8.65243317 127.293803,-7.86701177 128.018931,-7.74962542 Z M79.0586847,-13.127521 C79.3911015,-13.5959993 79.0352074,-14.1706588 78.4760215,-14.4113008 C78.4386713,-13.9983143 78.1249296,-13.2123593 79.0586847,-13.127521 Z M69.9270938,-16.3321684 L70.703978,-16.3321684 L70.703978,-16.8449333 C70.0146,-17.0418222 70.5860581,-16.4095367 70.122382,-16.4607598 C70.0898339,-16.6101606 70.1554636,-16.8219896 69.9270938,-16.8449333 L69.9270938,-16.3321684 Z M79.8361025,-18.2530359 C80.4758581,-18.2172865 80.8066742,-17.8101693 81.1972506,-18.2530359 C80.8493601,-18.3277363 80.3883519,-18.3207999 80.2234775,-18.5102188 C80.2133395,-18.5902549 80.1957316,-18.6638882 80.02979,-18.6388102 C80.0388607,-18.4627306 79.9380152,-18.3554822 79.8361025,-18.2530359 Z M80.2234775,-19.2790994 C80.2848385,-19.4530446 80.5014697,-19.5234764 80.4187657,-19.7902636 C79.9326794,-19.8121401 79.8110245,-19.5965761 79.6408143,-19.4066236 C80.3035136,-19.3116474 79.6883024,-18.6526831 80.8066742,-18.6388102 C80.988623,-18.7770059 81.5243316,-18.6782947 81.3898709,-19.0224501 C81.0489169,-19.4130265 80.7895998,-18.6745597 80.6129867,-19.0224501 C80.8077413,-19.4759883 81.4725749,-18.9120002 81.3898709,-19.4066236 C80.9331313,-19.4103586 80.8189464,-19.186791 80.2234775,-19.2790994 Z M169.791931,28.5099512 C169.640929,28.9522843 169.976014,29.0728721 170.375128,29.1502404 C170.362322,28.9261391 170.419414,28.7516603 170.569349,28.638009 C170.202783,28.666822 170.141956,28.4939439 169.791931,28.5099512 Z M114.612876,-19.1499744 C114.771348,-19.1755859 114.806564,-19.2790994 115.001852,-19.2790994 C113.786903,-21.7447463 111.778529,-23.4676578 110.532633,-25.4285434 C109.825647,-25.4248084 110.120714,-24.7631762 109.174687,-24.9163121 C109.261659,-25.6152944 108.826796,-25.9711885 108.978331,-26.7091218 C110.402441,-26.8382468 110.692172,-27.7149094 112.087469,-27.8616423 C112.292361,-28.4250968 111.430639,-28.283166 111.505873,-28.7617822 C112.447631,-29.1203441 111.665411,-29.7275517 112.087469,-30.170952 C112.500989,-30.6015465 113.777299,-30.4446756 113.837059,-31.1954147 C114.967169,-29.9393807 116.577497,-29.1251463 115.974558,-27.2224203 C117.014494,-26.1168543 117.880485,-24.8944355 118.888941,-23.7643251 C119.599128,-23.7899367 119.63381,-23.9388039 120.249022,-23.7643251 C119.6114,-23.526351 120.915456,-22.7542689 119.667426,-22.8673867 C120.153512,-22.0366115 120.52648,-22.8198986 121.219593,-22.7387953 C121.088334,-22.2308325 123.13139,-22.1289198 122.969183,-22.7387953 C125.004236,-22.1139797 124.668084,-20.4412242 126.077254,-19.9183214 C125.984412,-19.4605146 125.760844,-19.179321 126.077254,-18.7658009 C125.608242,-18.7151113 125.653596,-18.9995064 125.105082,-18.8943923 C124.965285,-18.5022151 125.441233,-18.5176888 125.30037,-18.1255117 C124.637137,-18.7577972 123.3,-18.9413468 122.192299,-19.2790994 C122.006082,-18.3661537 123.566787,-18.0123939 123.357092,-16.7168755 C123.839443,-15.9853451 124.298851,-15.205793 124.912461,-14.2848437 C126.025497,-12.6014167 125.614645,-9.86151258 127.826844,-9.28578589 C128.098967,-10.5663643 128.853441,-14.3862228 128.991637,-17.2291068 C129.027386,-17.9862488 128.626138,-18.2898526 128.21582,-18.8943923 C127.216969,-19.0032414 127.556856,-19.9988911 126.270941,-19.9183214 C127.363168,-20.076793 126.765565,-20.5404691 126.65885,-21.2026348 C126.935241,-21.1919633 127.210032,-21.1812918 127.243647,-21.330159 C127.795897,-21.1076586 127.958103,-20.2662119 127.437335,-20.0469128 C128.224891,-19.9103178 128.404705,-20.1162775 128.602128,-19.5341479 C129.732772,-20.1194789 129.225342,-21.2426529 129.380613,-22.0985061 C129.805871,-24.4590389 130.472839,-27.1743986 130.351718,-29.787312 C132.419852,-30.5738006 133.943207,-32.3511367 135.790974,-32.859633 C141.120315,-28.4731185 140.721735,-20.3099649 143.951994,-14.5393587 C144.493572,-12.2754028 144.390058,-10.377479 145.894738,-8.77355454 C145.571392,-7.71601024 145.989714,-6.68461107 146.284247,-5.70070002 C147.15344,-2.78738423 148.559942,1.04741442 150.946619,2.88717868 C151.009048,3.18277885 150.915139,3.37699991 150.753999,3.52746787 C151.282771,3.77184491 151.56023,3.89723487 151.529283,3.91217495 C152.004164,4.74988664 151.15418,4.43881281 151.140307,5.19168618 C151.757119,5.20929413 151.632262,5.72259263 151.918792,5.9600332 C152.317372,5.45207044 151.92306,5.13032513 151.918792,4.42387273 C152.751701,4.77229676 152.178109,6.04487152 153.277806,6.2177496 C152.191448,6.13931417 153.385588,7.16004185 153.861002,7.24114514 C152.975269,8.61669974 155.082888,9.7147957 154.638954,11.2146731 C154.227568,10.9398823 154.093641,11.5028032 153.861002,11.7269045 C152.751701,11.719968 152.12902,12.0379783 151.529283,12.3671937 C151.864901,13.0005464 152.650856,13.3372318 153.084118,13.9038877 C157.006423,13.6584435 157.812654,17.4788357 159.883456,19.287119 C160.21694,19.2897869 160.386616,19.1905421 160.46772,19.0294026 C160.532816,19.487743 160.443709,20.1611138 160.077143,20.6946881 C161.237134,20.7827278 161.105341,21.7260872 162.020421,21.9758 C162.917359,20.8568947 162.103125,19.2060157 162.603618,18.3901806 C161.922243,17.9579854 162.039096,17.5001786 161.632512,17.1053336 C162.022022,16.7654468 162.862401,16.7248951 163.185747,16.3369866 C163.522966,15.1956711 162.122867,14.5959336 162.603618,13.7758299 C163.178277,14.5148303 164.476464,15.4075001 164.740583,16.7216937 C164.772597,16.8710945 165.095943,16.8310764 165.32378,16.849218 C165.31044,17.3982659 164.9999,17.7450892 165.130092,18.3901806 C166.280478,17.8037824 166.525923,16.4506379 167.071769,15.8252888 C167.91535,16.1102175 167.167279,16.7547753 166.685461,17.1053336 C167.783557,17.8694121 164.851033,19.7801417 166.878082,20.4385724 C166.93464,20.9139871 166.769232,21.5361348 167.654966,21.4625015 C167.474618,22.1177308 167.326818,22.6785174 168.043408,23.0002627 C168.259505,22.88341 168.106903,22.7622886 168.238163,22.3605071 C168.802684,22.6705138 169.305845,23.0216057 169.404556,23.6389512 C169.480324,24.0764821 168.545501,23.8417094 168.821359,24.4083654 C169.219939,24.8656386 168.986234,23.8486459 169.599844,24.0236583 C169.486726,24.7237078 169.707093,25.3122403 170.375128,25.9487944 C170.358053,27.3873108 170.403407,28.8866546 171.346767,30.3032945 C170.473839,30.745094 171.800838,31.0791115 170.764637,31.3277572 C170.392736,31.1223311 170.35005,29.9047144 170.375128,29.5349474 C169.24395,29.5637605 169.350131,29.9932878 168.433451,29.9196545 C168.84537,30.4457588 169.378944,30.4457588 169.599844,30.3032945 C169.982417,30.6058311 170.056584,31.1116596 170.18144,31.5828057 C170.157429,32.1836104 169.898646,31.4435428 169.404556,31.5828057 C169.812207,32.432256 171.017018,32.8815256 170.18144,33.8926489 C170.843072,35.3482397 171.26673,37.008723 171.53992,38.2466154 C171.973183,40.1813559 171.873404,42.106492 172.902136,43.8838281 C173.43571,43.1490963 173.249493,42.5168107 173.678486,41.5793206 C174.661864,42.5787053 172.933617,44.0748477 173.678486,45.9338206 L173.09689,45.9338206 C173.964482,48.036637 174.02691,49.6506994 174.454837,51.7006919 C172.897867,51.9930906 174.291563,53.0271577 173.872707,53.6210259 C173.89405,53.9497077 174.522601,53.8771416 175.039101,53.8771416 C174.748303,54.3851043 175.622298,55.4362457 174.649592,55.7980091 C175.94511,56.7349656 175.385924,59.4311167 174.84488,60.4118263 C174.798459,61.6587895 175.780236,63.1415925 175.815985,64.897052 C175.817586,64.9520102 175.404066,65.3100386 175.426476,65.4103505 C175.522519,65.8003934 176.097712,66.1594889 176.203894,66.5618039 C176.514967,67.7292645 176.011273,69.1234942 177.174465,70.0198991 C178.212267,69.2414142 177.177667,68.1497211 177.756595,66.817386 C176.471214,65.9652678 177.799281,64.4104322 176.981311,63.7407965 C176.967972,63.3059334 177.553303,63.2653818 177.951883,63.1010409 C177.304657,58.1756163 176.972774,53.6866555 176.399182,48.8823523 L177.565042,48.8823523 C177.419376,53.9022196 179.250069,57.3821913 178.342459,62.0760446 C179.252204,64.8207509 179.565945,68.1395832 180.091516,70.5321304 C180.764353,73.6012499 180.152877,77.1916715 181.838438,80.0158804 C181.462268,80.4912951 182.128169,80.7916975 181.645818,81.4250502 C182.60892,81.9767661 181.90887,82.9612107 182.032659,83.9851398 C182.21034,85.4460663 183.690475,86.8360274 182.421635,87.8322107 C182.506473,88.021096 182.670281,87.7799204 183.003765,87.8322107 C182.507541,88.1534224 182.891714,88.2590701 182.615856,88.7275484 C184.71974,93.2106398 184.213911,97.2343238 185.917614,101.536534 C184.818985,103.252509 186.94101,105.352657 185.917614,107.047289 C187.398283,109.018846 185.917614,112.411312 186.696099,114.99061 C186.23349,115.070646 186.377555,115.550863 185.530773,115.374784 C185.041485,116.065762 186.277777,116.827706 186.502412,116.014539 C186.820955,116.897605 187.609578,117.93594 186.502412,118.83608 C187.170447,119.385128 187.288367,121.02 187.472983,122.4217 C186.946879,122.458516 186.0334,122.242419 186.30819,122.80534 C186.710506,123.347451 187.309709,122.29791 187.472983,122.678349 C187.401484,123.27115 187.235543,123.416816 187.472983,123.95786 C186.862041,124.02349 186.712106,123.680935 186.30819,123.95786 C186.329533,124.288143 186.959151,124.214509 187.472983,124.214509 C187.278762,125.348888 187.412156,126.245827 187.084008,127.2927 C187.835814,128.161892 187.690682,128.883285 186.891387,129.467549 C187.152839,130.418912 188.077523,130.99037 187.084008,131.389483 C187.117089,132.051649 187.438301,132.011631 187.667204,132.030306 C187.798464,132.655655 187.327317,132.882958 187.667204,133.315153 C186.951148,132.362723 186.729714,134.262781 186.696099,134.851313 C186.588317,136.764177 186.806549,139.372822 186.30819,140.485325 C185.838111,140.381811 186.916465,139.958687 186.30819,139.716978 C185.214897,140.06807 186.17533,141.14002 184.947576,141.509787 C185.083637,140.63099 185.039884,140.482657 185.530773,139.58892 C185.402181,139.416042 185.115652,139.350412 184.753888,139.332804 C184.943841,138.828043 185.974707,137.679791 185.336018,137.155287 C185.041485,137.55867 184.967852,138.110919 184.5586,138.436399 C184.30782,137.408735 183.876159,136.646257 185.530773,135.875776 C184.168557,135.026326 185.948028,132.272015 184.947576,132.157297 C184.131207,132.066589 184.931035,133.752684 184.169625,134.467674 C183.951926,133.091052 184.100794,130.742258 183.977004,128.061047 C184.058108,127.770782 184.392659,127.650194 184.5586,127.418623 C183.083267,126.633202 184.118935,124.701129 183.78225,122.934998 C184.512179,122.948337 183.916177,123.511792 184.753888,123.190047 C185.192487,123.054519 184.826988,122.384349 184.947576,122.036993 C184.141345,121.891327 184.189367,122.308048 183.586428,122.293642 C183.64192,121.785679 183.662195,121.762735 184.364379,121.524761 C184.169625,121.071223 183.506925,121.635211 183.586428,121.141121 C184.066111,121.158729 184.524452,121.158729 184.753888,121.013063 C185.171144,120.244716 184.213911,119.857341 184.5586,119.21972 C184.293414,118.774186 183.759306,118.992951 183.39274,118.83608 C182.939736,114.06059 182.082815,110.03904 181.062621,105.253412 C180.350833,101.925509 180.953772,98.3537627 178.730368,95.9014551 C178.751177,87.0670651 176.447203,79.3606512 174.066928,70.9157704 C173.276705,71.957841 174.363062,73.1258352 174.649592,74.3776006 C175.017758,75.9761892 174.774448,77.7503239 175.622298,78.731567 C175.141547,79.5804838 176.735334,80.601745 175.622298,81.4250502 C174.814466,80.7548809 175.89442,80.4704857 175.233322,79.6311733 C174.662931,79.327036 174.511929,79.876084 174.261683,79.6311733 C174.344387,79.0020892 175.304821,78.3516621 174.261683,77.5790465 C173.020056,78.7939952 174.685875,79.4929776 174.261683,80.7836939 C176.41092,84.7134688 176.444536,90.4248483 177.565042,95.9014551 C177.597056,96.2205326 177.265173,96.3016359 176.981311,96.4152872 C177.903861,97.2311223 177.41404,100.383479 177.565042,102.17789 C177.396432,102.557795 177.273176,101.881223 176.78709,102.049298 C176.858589,101.460232 177.026132,101.314567 176.78709,100.768187 C177.234759,100.732971 177.003721,101.137954 177.370287,101.151826 C177.356948,100.650267 176.756677,100.536082 176.203894,100.383479 C176.331418,100.255955 176.649962,100.25222 176.591802,100.000373 C176.631287,99.7869433 175.139946,99.8611102 176.203894,99.7442574 C176.339421,99.400102 175.803179,99.4988132 175.622298,99.3595503 C176.359697,97.1382804 175.792508,94.1433277 175.233322,91.0325894 C174.828873,88.7825065 174.602103,86.3307325 174.066928,84.2412555 C173.991161,83.9419203 174.344387,83.5833583 174.261683,83.3448506 C174.019974,82.6458683 172.746332,81.0483467 173.09689,79.5041827 C172.57879,79.1082705 171.923027,79.3168981 171.346767,79.5041827 C171.22938,78.4861228 171.318487,78.2123992 171.153613,77.5790465 C170.205451,80.3264207 170.230529,83.6014999 170.375128,87.0585279 C169.430701,86.3942279 169.873034,84.632899 169.599844,83.2173264 C169.566229,83.0668584 169.24395,83.1084772 169.016647,83.0892685 C169.508069,82.3129179 169.264759,81.9767661 169.210335,81.4250502 C168.944615,78.7971967 168.583385,73.1044922 166.878082,70.6601883 C167.050426,70.3272379 166.580347,69.6858816 165.906976,69.2515521 C165.435297,67.7954277 165.74477,65.5922994 163.965299,64.5123449 C163.44293,66.7160069 165.45824,69.7563134 164.934804,72.7133823 C166.722811,78.5117344 166.983196,84.6382348 167.654966,89.7520111 C169.104154,89.2621898 168.981965,88.9137658 169.210335,87.7030857 C170.095001,88.2958867 169.566229,88.9244373 169.599844,90.0075932 C169.671343,92.5367355 170.836669,95.0093189 168.043408,96.0305801 C167.938294,104.589112 168.742924,114.471442 170.18144,123.573153 C170.725686,123.507523 171.190963,123.388003 171.735742,123.318638 C171.776827,123.730557 171.042629,123.629178 170.764637,123.830869 C170.919907,124.358041 171.564465,123.764173 171.93103,124.086985 C171.512708,126.331732 172.885595,127.67634 170.957257,128.955317 C171.582606,131.004776 171.212306,134.582926 170.569349,137.79611 C170.466902,138.312076 171.224044,138.992384 169.987753,139.077222 C170.303629,138.327017 169.68735,138.172814 169.791931,137.283879 L168.821359,137.283879 C168.531628,137.477566 168.509218,137.8468 168.433451,138.180284 C168.623403,138.538312 168.951551,137.993533 169.210335,138.309409 C169.647332,138.853121 168.211484,139.89946 168.043408,140.8727 C167.959103,141.363588 168.344877,141.937714 168.238163,142.537452 C168.150656,143.032075 167.678977,143.573653 167.654966,144.074146 C167.592538,145.475845 168.79308,147.122456 168.238163,148.300588 C168.058882,148.208279 167.943629,148.070084 167.850254,147.915881 C167.449006,148.384359 167.795829,148.739719 167.850254,149.200194 L167.071769,149.200194 C168.064217,149.84155 167.430865,150.199579 167.654966,151.121062 C167.270259,151.118394 167.407921,150.76997 166.878082,150.86548 C167.052027,151.516974 167.308142,152.116178 167.654966,152.658289 C167.312411,152.899998 167.087776,152.505153 166.685461,152.786347 C166.960252,153.565899 166.536594,154.516729 166.489106,155.091922 C165.91498,155.526251 164.15792,155.531587 163.57579,154.707215 C162.946172,155.030027 162.575872,155.877877 161.632512,155.60362 C161.028506,159.097464 161.721619,162.123898 161.632512,165.471543 C160.889243,162.764721 160.923392,160.126195 160.661941,157.528222 C160.16625,157.35321 158.789095,158.293368 158.135466,157.655746 C157.768901,158.063397 158.184555,158.189854 157.941245,158.679675 C155.483068,159.852472 154.049888,161.282985 154.056291,163.163301 C153.268735,162.079077 154.530638,160.436736 154.833175,159.448556 C153.818316,159.72388 154.195554,159.456026 153.084118,159.578215 C152.567618,160.388714 152.698878,161.798417 153.472027,161.369957 C152.998746,161.998508 153.039832,163.125417 153.665714,163.418349 C152.668464,163.572552 152.677535,164.389454 151.724037,164.576205 C151.808876,164.766158 151.972149,164.523915 152.3067,164.576205 C150.429586,168.16556 151.424702,171.786929 151.140307,176.745435 C149.800502,175.851164 149.923757,172.994407 149.78076,170.97803 C149.314416,164.425204 149.659638,157.396963 149.586539,150.480772 C149.567863,148.834696 149.269062,147.306005 148.809654,146.507778 C149.84052,146.204708 149.130866,145.417686 148.614366,144.842493 C148.581818,144.338265 148.913168,144.884111 149.197563,144.586911 C149.430201,143.662226 148.340642,143.403976 148.614366,142.410994 C148.275546,142.724736 148.18644,142.667644 148.225924,142.153812 C146.985364,143.452532 147.845486,146.500842 144.729411,146.379187 C144.833992,147.133661 143.275955,146.789505 143.369864,147.532774 C142.429706,145.583094 143.642521,144.31212 142.787201,142.410994 C139.066587,143.203352 140.134269,147.082438 140.065438,149.968541 C140.024887,150.385796 139.96068,149.958047 139.872818,148.685295 C139.423548,147.872661 139.915504,146.43788 139.483842,145.610306 C138.782192,145.490785 139.211186,146.116135 139.094867,146.379187 C138.603978,145.893634 138.61625,145.072463 138.123228,144.586911 C137.638742,144.576773 137.575781,145.49452 137.735319,145.483315 C137.038471,145.018572 135.842731,145.746901 135.985195,146.891952 C135.436148,146.465092 135.142682,146.658246 134.238273,146.507778 C134.048321,147.547714 134.585096,150.371923 132.682904,150.86548 C133.747918,151.550055 133.300783,153.136905 133.265567,154.196584 C133.166322,157.274774 137.444521,158.025513 140.843923,159.322099 C140.565931,160.011477 140.548857,160.086177 140.648635,160.985784 C139.945918,161.062085 140.680116,160.323084 139.872818,160.217437 C138.452977,160.477287 140.037692,162.262627 140.065438,162.650536 C139.530263,162.500601 139.384064,162.288772 138.708025,162.521944 L138.708025,161.114375 C137.60406,160.902013 136.494759,160.694452 135.985195,160.090446 C135.024228,160.467149 134.824138,160.404188 133.655076,160.217437 C131.75822,162.054 131.597614,166.218547 131.90602,168.034301 C131.72087,168.253066 131.261996,168.292017 131.128602,168.545465 C131.307883,169.276995 131.195299,169.496294 131.90602,169.953567 C131.551193,170.97803 128.610665,171.238414 128.018931,172.518459 C127.309811,172.598495 126.985931,172.430953 126.65885,172.262877 C126.676458,171.846155 126.758628,171.471586 127.048359,171.233612 C126.207446,170.849972 124.792941,170.842502 124.327664,170.209683 C125.26462,169.482421 124.749187,168.372587 124.327664,167.520468 C124.669151,167.636788 124.685159,167.970272 124.912461,168.160758 C126.223453,166.477331 127.490692,164.721338 126.854138,162.394953 C127.975178,162.84529 128.098967,161.970762 127.826844,161.369957 C128.420179,161.277649 128.397769,161.594592 128.991637,161.498015 C129.55189,161.144255 128.948951,160.016813 130.15643,160.090446 C130.200183,157.334535 130.142023,156.060893 129.574834,153.939401 C128.090963,154.066392 127.000337,153.063806 126.077254,153.939401 C125.484986,153.579772 126.424077,153.152379 126.854138,153.042996 C127.44107,152.442725 126.155689,152.655088 126.270941,152.018534 C125.564489,152.058018 125.007971,151.995056 124.521885,151.889409 C124.836694,151.059701 124.244426,150.471168 123.938688,149.712959 C122.810712,149.860226 123.556115,149.775921 123.161804,149.328786 C122.559932,149.314379 122.607954,149.731101 121.80279,149.584368 C122.01782,149.987216 121.892964,149.921587 121.609103,150.226258 C122.025824,150.697937 122.405729,150.441822 122.773895,150.994071 C121.360457,150.726217 120.139639,149.229541 118.888941,148.431847 C118.556524,148.425444 118.385246,148.524689 118.305744,148.685295 C118.607213,148.146385 117.095597,147.72326 117.334639,147.276659 C117.531528,147.359896 117.534729,147.571725 117.917835,147.532774 C118.257722,147.166209 117.744957,147.243577 118.500499,147.148067 C118.188891,145.193585 119.053815,144.227281 118.693119,142.794634 C119.131717,142.845324 118.665373,143.494684 119.277916,143.435457 C119.575651,143.203352 119.976365,143.042746 119.859512,142.537452 C120.339196,142.552925 120.797002,142.555593 121.024305,142.410994 C120.869035,142.168218 120.702026,141.937714 120.636397,141.641047 C120.899449,141.76697 121.024305,141.981467 121.219593,142.153812 C122.754153,140.942064 123.531037,139.234626 123.745001,137.155287 C123.17621,137.240126 123.614275,137.891086 122.385987,137.539994 C121.857215,137.656847 122.904087,137.777435 122.580208,138.180284 C120.98322,138.567659 119.391034,138.421459 117.528326,138.436399 C116.902977,137.904959 116.241345,137.529323 115.780337,137.79611 C115.618664,138.424661 116.800531,140.417027 115.585048,140.74144 C115.638406,139.754861 115.57331,137.7737 114.420256,137.155287 C113.429408,137.529323 112.831805,138.15734 112.865954,139.204213 C111.188396,136.782319 111.474392,133.856197 109.951037,131.389483 C109.216305,131.206467 109.578602,131.745377 108.978331,131.645599 C109.041827,131.348932 108.948985,131.154711 108.785711,131.004776 C107.857292,131.240082 106.977961,131.170184 106.063948,131.645599 C106.439051,134.042415 106.279512,135.784001 106.842433,137.539994 C106.890455,137.7006 107.228741,137.666985 107.231409,137.539994 C107.47045,138.063964 107.234077,138.590602 107.813538,139.332804 C107.890373,139.640143 106.927805,139.264507 107.231409,139.716978 C107.316781,139.90693 107.480055,139.668956 107.813538,139.716978 C107.547818,140.427165 108.239864,141.008761 107.620385,141.769105 C108.294289,141.550339 108.110739,142.398722 108.396735,142.794634 C108.541334,142.589208 109.346497,142.823447 109.174687,142.410994 C109.614352,142.669244 109.604214,143.080097 109.174687,143.306332 C108.831065,142.98512 108.853475,143.214557 108.396735,143.05075 C109.030088,143.763605 108.309763,144.684021 109.174687,145.098608 C108.01683,144.956678 109.965444,145.783184 109.563129,145.355258 C111.066208,146.958115 109.963843,147.989514 109.951037,149.584368 C109.937164,151.265127 111.82495,152.606533 110.729522,153.682752 C110.89493,154.966532 112.296096,157.67122 111.700094,158.8088 C111.730508,158.959268 112.05332,158.914448 112.28169,158.937925 C112.543141,160.754746 113.485434,162.83035 113.448083,164.703196 C113.481165,164.853664 113.802377,164.808844 114.03128,164.831787 C113.913894,165.135391 113.753288,165.41285 113.837059,165.855183 C115.539695,166.881246 113.950177,168.822923 115.974558,169.697452 L115.974558,170.849972 L116.557221,170.849972 C117.043841,168.54173 115.665085,167.374269 115.974558,165.344552 C116.71836,165.629481 116.833612,166.609657 116.945663,167.265953 C117.140418,168.41047 117.431749,169.99732 116.945663,170.593857 C117.407738,171.135434 117.374657,171.304044 117.528326,172.386133 C117.096665,172.287955 116.771184,172.120413 116.167178,172.133752 C116.497994,172.254873 116.669271,172.484844 116.557221,172.903166 C116.786124,173.048832 117.242864,173.045631 117.722547,173.031224 C116.418492,173.56053 116.929656,175.699096 118.500499,176.233737 C118.350564,176.714488 118.737406,176.843079 118.693119,177.257133 C118.412992,177.45829 118.049095,177.600221 117.917835,177.897422 C117.975995,178.074035 118.403922,178.004137 118.693119,178.024946 C118.871333,181.131416 120.191396,184.260296 120.636397,187.120788 C120.686019,187.282461 121.024305,187.253114 121.024305,187.120788 C121.182777,187.490555 120.669478,188.078553 121.024305,188.662284 C121.279354,188.508081 121.332711,188.609993 121.609103,188.662284 C122.398259,186.556799 120.347199,184.343533 120.249022,181.742892 C120.158314,181.467034 120.52648,181.497448 120.832218,181.486776 C120.920792,181.211986 120.553159,181.241332 120.249022,181.229593 C120.425635,181.004425 120.96241,181.017231 121.024305,180.718963 C121.140091,180.945732 122.16402,182.042761 121.413814,181.870416 C121.459168,182.22471 122.030093,182.233247 122.192299,182.510705 C122.127203,183.174472 122.287809,184.980087 123.161804,185.071329 C122.702396,185.442163 123.062025,186.085653 123.745001,186.096325 C124.08222,185.573422 123.044951,184.856832 123.357092,183.918808 C124.28978,184.423569 123.946692,185.456036 124.521885,186.481032 C124.486135,187.096777 124.185733,186.262266 123.55078,186.481032 C123.354424,187.278192 124.171326,187.875262 124.912461,188.277577 C125.082138,188.687362 124.271105,188.452589 124.327664,188.789274 C124.686759,192.130517 126.592687,194.252008 125.883566,197.374485 C124.819619,197.162123 125.637589,196.140328 124.327664,196.47648 C124.498941,195.338899 124.473863,194.852279 123.745001,193.912655 C123.555048,194.555612 123.516097,196.879328 124.521885,196.732595 C125.184584,197.055408 123.85385,197.135978 123.745001,197.374485 C123.34482,196.952428 123.484083,196.18088 122.773895,195.964248 C122.571671,195.903954 122.734411,196.659496 122.969183,196.732595 C123.001198,197.011121 122.278738,196.790755 121.997011,196.861187 C121.58776,196.945492 122.446814,197.60659 121.997011,197.758125 C121.785716,197.336068 120.99816,197.417171 120.832218,197.629534 C120.54889,196.936954 119.566046,196.176611 120.442709,195.448282 C121.001895,195.466424 120.629994,195.971185 121.413814,196.09284 C119.219757,190.062916 118.00961,181.454762 115.780337,174.696509 C115.749923,174.459069 115.121372,174.615406 115.001852,174.43986 C115.259568,172.573417 112.507392,173.035493 111.505873,172.262877 C111.118498,172.434688 110.580121,172.504053 110.145792,172.646517 C110.180474,173.29481 110.358154,173.644834 110.340013,174.567384 C109.038092,174.479878 109.426,175.50114 108.202514,175.464323 C108.073389,174.197084 107.808203,172.426684 108.202514,171.106621 C108.501316,170.111505 107.704689,168.867744 108.008293,168.289349 C108.145422,168.029498 109.015681,168.266405 109.174687,167.904642 C109.118661,167.642123 108.655519,167.649593 108.396735,167.520468 C108.723283,165.917611 108.453828,162.543821 106.452924,161.62714 C106.180801,156.898604 104.121204,151.645032 102.373748,147.021077 C102.042399,146.938906 102.054137,146.636369 101.791085,146.507778 C102.119233,146.383455 102.290511,146.154018 102.178994,145.739431 C100.449679,144.511143 101.339148,141.857678 99.0719904,141.25634 C97.5513035,142.322421 99.0266365,143.662226 98.4866593,145.098608 C97.8511723,142.944569 98.2774982,141.19071 97.3218666,140.101685 C97.1260448,139.878117 96.6970511,139.95175 96.5460495,139.845569 C97.2882514,139.069752 95.7552924,139.135915 96.1570738,138.563924 C97.0001213,138.465746 98.6419295,138.169612 99.8478074,137.924702 C99.3339753,135.063142 97.9376113,132.776243 97.3218666,129.981381 C98.7331707,132.088466 98.6232544,134.780882 100.043096,136.64359 C100.697791,134.140592 98.0149796,130.99037 98.4866593,128.187504 C98.5218752,127.865758 98.053397,127.87643 97.9039962,127.67634 C98.7998675,126.271438 98.0149796,123.903969 97.5166212,122.293642 C97.8911904,122.344331 97.6708242,122.790933 98.2935054,122.678349 C98.9167202,121.024268 96.3891787,120.471485 95.7675646,119.21972 C94.851951,119.24213 96.1138543,119.908031 95.1838343,119.860009 C95.3423058,119.413941 94.8962377,119.366453 94.9901468,118.964138 C95.0952609,119.513186 95.917499,119.20478 95.3791225,118.83608 C95.8790816,118.514868 96.2573858,119.358983 97.1287127,119.21972 C97.4355179,115.938772 96.0450232,112.294459 95.5744107,108.839565 C95.3118921,106.926168 94.4240244,105.152033 94.0190415,103.462203 L94.9901468,103.462203 C95.0909923,101.876954 95.6186973,99.1925415 93.8253541,98.3361548 C94.3258468,96.1618394 92.9257477,94.9031376 93.0484698,92.8259327 C91.9418367,94.0446165 92.9353521,95.2430244 93.2421573,96.7999943 C92.1408599,97.3260986 93.4107668,99.0538122 92.6605613,100.383479 C91.8196482,99.5607078 92.4636724,97.8201884 92.0762974,96.6692686 C91.2791374,96.7738491 92.177143,97.1985743 91.6867882,97.4386827 C90.4008741,94.2340354 90.6239081,89.0130106 88.9676934,85.7779495 C87.9357607,87.5456813 89.4062915,89.162945 89.1619145,90.6478824 C88.6171351,90.5790513 88.8033525,90.0300033 88.5787178,89.7520111 C88.3604859,93.1359394 86.5196544,97.5304575 87.6076125,100.896244 C87.4976962,101.164099 87.3045423,101.166233 87.022815,101.025369 C87.3498961,101.460232 86.5980899,101.811324 87.6076125,101.79425 C86.4812371,104.497871 87.1972938,108.160325 86.8307283,111.149409 C86.0837242,111.163281 86.104,110.402938 86.6365072,110.253004 C85.6419247,109.534813 86.6525144,108.521555 85.6643348,107.558987 C84.9125286,108.209948 85.6696705,108.850237 85.2748256,110.121211 C83.9360876,109.41049 85.0469893,110.699072 84.1100328,110.637177 C84.2605008,110.0225 83.8074962,109.809603 83.9147446,109.224272 C83.5711227,108.887587 82.880144,109.509735 83.1378604,108.712041 C81.8295362,109.41049 82.7099338,111.316951 82.3620433,112.686103 C81.7052133,109.699687 82.1790273,106.154086 80.8066742,102.309149 C80.3616732,102.569 80.7378431,103.370428 80.6129867,103.845843 C79.6509522,100.172184 79.3644228,96.4227572 79.448194,92.5687499 C79.5159579,89.4110571 78.3629038,86.1589216 78.4760215,83.0892685 C78.5091032,82.2104716 79.0218681,81.3546184 79.0586847,80.5281118 C79.1195122,79.1301471 78.4690851,77.7908755 78.2801998,76.297401 C77.6548507,71.3234212 77.9456487,64.3810857 76.1448353,59.2593057 C76.0904108,58.966907 76.1912563,58.7748203 76.533811,58.7470744 C76.0583963,57.9088291 75.7195766,56.9724062 75.5616386,56.0578598 C74.4550055,49.6437629 73.0495707,42.9335322 71.0918865,35.4298765 C70.4473287,35.4192051 71.0241226,35.80658 70.5102905,36.0690986 C68.9357127,30.7717727 67.7602484,24.47026 66.6248023,18.7748877 C67.2677593,26.7251451 68.6982721,34.1263545 69.7334063,41.7073784 C68.4725702,39.2086499 67.9293915,35.8535346 67.4016865,32.8676527 C66.8814515,35.648642 68.0462443,36.775551 67.789595,39.1419531 C66.5927878,35.9010227 66.5794485,32.220427 65.4584088,29.0227161 C65.4295958,28.7036387 65.5592544,28.4918096 65.8479181,28.3824269 C64.4915722,25.2316705 64.411536,18.5683944 63.5151311,15.3119903 C63.0210413,15.4251081 63.0173063,14.7933561 62.5440259,14.5436433 C62.7889365,13.8745411 63.1144168,15.2324878 63.9041068,14.6717011 C63.6239803,15.3162589 64.3240298,15.7415177 64.0983279,15.9533467 C64.6825918,16.0846059 64.4424833,15.6678844 64.4873036,15.4405817 C64.8117167,16.1683771 65.4146557,16.7110222 65.4584088,17.6213 C65.1441336,17.6543816 65.1227906,17.4975108 64.8757457,17.4932422 C65.251382,22.2719338 66.3750895,27.6658366 67.0127108,32.7363934 C67.6930181,29.4693178 65.341556,24.5257517 66.2342259,20.8232795 C65.8991412,20.618387 65.5288406,20.4348374 65.6526299,19.9263411 C66.389496,15.564371 63.7066843,9.50936958 63.3225108,4.68052198 C63.1848486,4.14961553 64.0012174,4.81178126 64.2925489,4.42387273 C64.3709844,2.19619993 63.9217148,0.534115923 63.9041068,-1.34193139 C64.5502653,-0.318535843 64.4702292,1.18881162 64.8757457,2.37601448 C65.3762384,0.48556066 64.4595577,-4.42705812 64.4873036,-6.46904705 C65.4424016,-6.3516607 64.9472446,-5.40029768 65.0694331,-4.92808441 C65.8916712,-1.75918651 66.8761158,0.981784779 67.4016865,4.03916564 C67.5441508,4.15655199 67.7554463,4.23392027 67.9838161,4.29581489 C67.9000449,4.73494656 68.0606508,5.0124052 68.1775036,5.31974401 C67.6236534,4.9398391 67.8226766,5.6276164 67.789595,5.9600332 C67.8493554,6.1323777 68.277282,6.06568091 68.5670128,6.08915818 C69.2585251,9.05636499 70.2499062,11.2077367 71.0918865,13.9038877 C71.2978462,14.2800576 71.971217,14.351023 72.4519675,14.5436433 C72.1942511,14.9102089 71.5886442,14.4449321 71.2871747,14.4171862 C72.9967468,18.8981433 74.2634523,24.104228 74.9784419,28.8941247 C74.1081822,28.2714435 74.1930205,27.0202117 73.8136491,26.0779194 C72.6952773,26.18997 72.8158651,27.1269265 72.8414767,27.998787 C71.0668085,25.9445258 71.7215042,22.4656213 69.9270938,20.1819232 C69.6613738,22.1983005 70.9008669,25.8788962 72.0640589,27.6140799 C71.8143461,27.9432952 71.662811,28.0158614 71.0918865,27.8701956 C72.215594,33.372414 73.7362808,40.2139039 75.5616386,45.5491136 C75.6091267,45.7113201 75.9468793,45.677705 75.9506143,45.5491136 C76.7739195,48.4218777 77.7199467,52.1456929 79.0586847,53.8771416 C79.0256031,54.1546002 79.7480627,53.9358347 80.02979,54.0051994 C79.9753654,54.8098295 80.7058286,55.0995603 80.6129867,55.9292684 C80.8493601,56.3689336 81.3989417,56.6063742 81.7793802,56.9537311 C82.7275417,60.6449983 84.0625447,64.7513862 84.8874506,68.0979644 C86.0559784,68.2014778 84.7529899,67.4112542 85.6643348,67.4587423 C85.7529081,68.1972092 85.8969732,68.8567071 85.0827388,69.2515521 C85.1142197,69.4014864 85.435965,69.362002 85.6643348,69.3796099 C85.5816308,72.4055099 86.6509137,76.2579165 87.413925,79.3750577 C87.7458082,79.4017364 87.9160184,79.1562922 87.9971217,79.3750577 C88.3647544,77.568375 87.5691951,74.8567503 87.413925,72.840373 C88.4645328,76.4734805 88.5680463,78.6760753 89.1619145,81.936748 C89.3022445,82.70883 89.2174062,83.3816672 90.1324862,83.7295577 C89.9932233,83.437159 89.9612088,83.074862 89.7445776,82.8331528 C90.1661014,82.7296394 90.3475166,83.8826935 90.5219954,84.3693133 C90.1207475,84.3378324 90.3384459,83.8944322 89.9403994,83.857082 C89.6389299,85.5330389 91.3308941,88.1422173 91.1051922,90.264776 C91.8874121,87.680142 91.5549953,85.9396225 91.2988796,83.6014999 C91.250858,83.4403604 90.913639,83.4729085 90.9109711,83.6014999 C89.2190069,78.8996429 88.5029502,75.0141547 87.6076125,70.403539 C87.9613723,70.5572084 87.7618155,71.0731748 87.9971217,71.3004775 C88.3210014,69.6650722 87.1876895,67.5350435 87.022815,66.178164 C87.4347344,65.9503277 87.5889374,66.1664253 88.1908092,66.178164 C87.9464322,67.8685274 89.6399971,70.3042942 89.3572027,72.4556659 C90.041245,73.0740785 89.8801055,73.619925 90.1324862,74.6331827 C91.1142629,74.1033434 90.9440527,74.9474579 91.1051922,75.1459476 C91.3442335,72.6098688 91.943971,70.8175927 91.2988796,68.4826715 C92.467941,69.0434581 91.4023931,70.2904213 92.0762974,71.171886 C92.4332586,68.4021017 92.3180066,62.9436364 91.1051922,60.5393505 C90.8592144,60.0527308 90.0807295,58.3116778 90.3267072,56.9537311 C90.5203947,55.8855153 89.9361308,54.3194747 90.1324862,52.9802031 C89.9452016,52.5928282 89.6143855,52.2993623 89.3572027,51.956274 C90.817062,50.7632018 89.6992238,48.2489996 89.7445776,46.7016341 C90.1047403,46.7245778 89.8630311,47.1370307 90.1324862,47.2138654 C90.9958094,47.0169765 90.2456039,46.2998526 89.9403994,46.446052 C89.2040669,43.3321123 90.1767728,37.3459419 88.3844967,35.0451695 C88.4949466,34.6423209 88.6278066,33.5484935 88.3844967,32.7363934 C89.1032213,33.6429361 89.2254098,34.7517036 89.5492894,35.6854586 C89.9105193,35.66625 89.6688101,35.250062 89.9403994,35.1721602 C90.3224386,35.6267655 89.438306,36.3038713 89.9403994,37.0930277 C90.3133679,36.8555871 90.091401,36.8593222 90.7156829,36.966037 C91.1596167,36.617613 91.4264039,36.1528698 91.2988796,35.4298765 C91.6825196,34.9464582 91.250858,36.0402856 91.6867882,35.9405072 C91.3266255,36.2152979 91.556596,36.8774637 91.4941678,37.349677 C90.934982,37.8955235 90.57642,38.8239428 91.1051922,39.2705445 C90.6111023,40.8952783 92.0810996,42.4981356 91.4941678,44.3971266 C91.0262232,44.446749 91.071577,44.1623539 90.5219954,44.2680016 C91.0945207,47.4630446 90.2349324,49.5781333 92.0762974,51.956274 C92.5421078,51.7919331 92.7918206,51.4872622 93.6316666,51.5715669 C94.0121051,51.5059373 93.3590101,50.6239389 94.0190415,50.6746285 C93.9261996,52.6589914 95.1310104,53.9833229 94.6022383,55.5418934 C94.7815192,55.7686625 94.5969025,56.2296707 95.1838343,56.1816491 C94.7708478,56.4772492 94.4378974,57.8570724 95.1838343,58.1067852 C94.2532807,59.009593 94.9517294,60.6930199 95.7675646,61.3082311 C95.7803704,61.7361577 95.1961065,61.3530514 94.7964593,61.6918711 C94.981076,62.4346065 94.9848111,63.7845496 95.5744107,65.1531677 C96.0220795,64.6745515 95.2494639,63.8395077 95.7675646,63.2280316 C96.6228842,63.5065573 95.7312815,64.1655216 96.1570738,64.6409364 C97.2839828,64.4765955 96.4553419,63.4558678 96.5460495,62.8443916 C96.1554731,62.8006385 95.9388419,62.8742718 95.9612521,63.1010409 C95.5237211,61.5312652 96.5695268,60.3312566 95.5744107,58.1067852 C95.605358,57.9563173 95.9281705,57.9963353 96.1570738,57.9787274 C95.6096266,54.2020883 94.8893013,49.7648843 94.2132626,46.1894027 C93.0361976,46.2187493 94.6129098,47.8466846 93.2421573,47.9859475 C93.0842193,45.8452473 92.467941,43.7306923 92.6605613,41.0665557 C92.5901295,40.9166213 92.3180066,40.7421425 92.2699849,40.9390314 C92.6642963,37.141583 91.6643781,31.6089508 91.4941678,27.7416042 C91.7038626,27.7709507 91.62436,27.9939848 91.8820764,27.998787 C92.2950629,26.0400356 92.0613573,23.9142755 92.0762974,22.2308486 C93.5804434,25.1004113 92.0096006,28.4032363 93.2421573,31.0721751 C93.8024104,30.357719 93.5409589,29.5232088 93.4358448,28.638009 C94.4992584,28.946415 93.4161025,30.2051168 94.4074836,30.8144587 C94.8348767,32.9807704 93.8333577,37.1559895 96.1570738,39.2705445 C96.1949576,39.6733931 96.025281,40.211236 96.3502277,40.423065 C97.1409849,39.7945145 96.2013605,38.9776122 95.9612521,37.9899661 C96.9894498,38.2530183 96.5311094,39.4935786 97.5166212,39.783843 C97.7321852,39.5746819 96.8192396,38.5608907 97.9039962,38.3736061 C96.4404018,34.2624159 96.2387107,28.2287575 94.2132626,25.3085052 C94.2388742,24.6132579 95.0168255,23.6661635 94.0190415,23.3844362 C95.7926426,22.0857163 93.648741,20.0069108 94.6022383,18.3901806 C96.0103409,17.6506466 97.7172452,17.1128037 98.0998179,15.6966974 C98.900713,15.5030099 99.4983162,15.1689924 100.235716,14.9272832 C99.2000482,12.2428708 97.7679347,9.67477762 96.5460495,6.72838022 C96.4857556,6.55656929 96.0583626,6.62326608 95.7675646,6.60138953 C95.6000222,5.10791501 93.9859599,3.52426642 93.0484698,2.11563021 C91.5075072,2.45551705 93.7666609,5.34855703 92.6605613,6.4733317 C94.0750668,9.27192901 93.2715039,11.4563823 94.0190415,14.1594698 C94.1097492,14.5633856 93.4956051,14.4998902 93.4358448,14.8002926 C94.0457202,15.3093225 92.7427318,16.3225801 94.2132626,16.7216937 C93.5676377,17.7936445 93.6620803,18.963773 93.2421573,19.7982832 C91.6419679,15.2324878 90.9760672,10.6112006 90.3267072,5.31974401 C90.2829541,5.132993 89.7488462,5.27705807 89.7445776,5.06469549 C89.977216,4.78990471 90.1111432,4.44948429 90.5219954,4.29581489 C89.5909082,2.08948507 89.7275033,-1.19946705 89.5492894,-3.90415528 C89.2782337,-8.04202415 87.6897829,-13.0400148 87.2186368,-17.1005154 C87.3755077,-17.0348858 87.5350464,-16.9655211 87.8013,-16.9724576 C87.2143682,-17.1405335 87.3242845,-17.7706848 86.8307283,-17.9974538 C86.6711896,-18.5710462 87.3872463,-18.5710462 87.6076125,-18.8943923 C87.7618155,-19.4653168 86.5650083,-19.1467729 86.6365072,-19.6627393 C87.2874679,-19.5341479 86.5858177,-20.6759969 87.022815,-20.6861348 C86.2192521,-20.9107696 86.3953316,-21.2794695 86.2475315,-21.7148661 C84.4163045,-20.8707516 83.4249234,-19.4759883 82.7499519,-17.8688624 C78.644631,-16.0733848 81.1374903,-11.4184825 81.7793802,-7.36491833 C82.4223372,-3.29267911 83.5257689,0.336693424 83.5273696,4.55139699 C84.4568561,5.28292738 83.7941568,6.37408687 84.6932295,6.98556304 C85.3751375,10.8080895 86.5527361,15.2794423 87.2186368,19.7982832 C87.1135227,20.0794769 87.5900045,19.9812992 87.6076125,20.1819232 C87.5558558,20.9433337 87.6252204,21.6247081 87.9971217,22.1027907 C87.4059214,22.4837628 87.7111259,23.4543345 87.413925,24.0236583 C87.2874679,21.2357324 86.749625,17.7093398 85.6643348,15.1849996 C84.6825581,15.6598808 85.855888,16.8230728 85.4706473,17.7498914 C84.6617487,16.8822996 85.1184883,15.5286215 84.4995421,14.8002926 C85.8516194,14.2186965 84.3981629,12.9349167 83.9147446,12.3671937 C84.3650813,12.4077453 84.6617487,12.34425 84.8874506,12.2386022 C84.0043851,11.6650098 83.2920634,10.4431246 84.3058546,9.67477762 C83.0460856,8.10553554 83.0781001,5.45207044 82.5562644,3.3999436 C80.1002218,0.819578185 82.8539989,-3.73181078 80.02979,-6.08540711 C80.9464707,-7.33183672 80.004712,-9.83856889 79.448194,-11.2066534 C78.5859379,-7.98333097 79.4983499,-5.62706677 80.2234775,-2.75163475 C80.1973323,-2.5136606 80.0959532,-2.32317457 79.8361025,-2.2394034 C80.3115172,0.684583881 81.0734613,3.83534025 81.1972506,6.72838022 C81.2330001,7.58156556 80.8600316,8.48970906 81.7793802,9.16147913 C81.5787562,9.58620429 81.5787562,10.1421887 81.1972506,10.4463261 C80.5212119,10.1203122 80.9662129,9.05903286 79.6408143,9.16147913 C79.9684289,8.99340322 79.3164011,8.30562592 79.8361025,8.00949217 C78.665974,5.97604043 79.0853634,3.31937388 77.115407,2.11563021 C76.9014437,2.95654334 76.2547516,3.51359493 76.1448353,4.42387273 C75.6320704,4.21524517 75.9639536,3.96286451 75.1721293,3.78358354 C75.3594139,1.27685138 74.4934228,-0.314800823 74.0073366,-3.26333252 C73.7869704,-3.50504169 73.7778996,-3.88121159 73.0362313,-3.77556387 C73.7506874,-4.61701058 73.1253383,-5.17673004 72.4519675,-5.95201353 C70.9814366,-5.74712099 72.0587232,-4.61380913 72.0640589,-3.90415528 C72.0688611,-3.32896216 71.6654789,-2.7692427 71.8687707,-2.11027841 C70.8341701,-3.04670135 71.8500956,-4.63195066 70.703978,-5.56730644 C69.7739579,-4.88006272 70.3678262,-3.54505977 70.5102905,-2.75163475 C70.3214052,-2.36265907 69.9959249,-2.06759247 69.9270938,-1.59911421 C69.451679,-3.84546211 70.0556852,-7.05064306 69.343897,-8.77355454 C68.9405148,-9.0632854 68.4378878,-9.28578589 67.5948404,-9.28578589 C67.9357944,-9.66622438 68.6305082,-9.21215263 69.1512767,-9.28578589 C69.4634177,-10.492731 70.0503494,-13.6909755 68.1775036,-14.2848437 C68.3092964,-14.7522548 68.7841776,-14.993964 69.343897,-15.1796478 C69.3780458,-15.791124 69.3812472,-17.3571647 69.5386517,-18.6388102 C69.6837839,-19.8238787 70.0343422,-20.3905347 69.9270938,-18.3810938 C70.233899,-18.0550799 70.6228747,-18.626538 71.0918865,-18.3810938 C71.4280383,-19.2860358 70.6933065,-20.155762 71.6750832,-20.6861348 C71.1105616,-20.2992935 72.0811333,-20.5479391 72.0640589,-20.5586106 C73.3008842,-19.7390404 72.1302221,-15.7831204 72.8414767,-14.7949408 C73.087988,-14.7293111 73.9475763,-14.5692388 74.7858215,-14.5393587 C76.6650703,-15.6961478 77.8389338,-16.6064256 77.6986038,-18.6388102 C78.1105231,-18.9232053 78.5235097,-19.2054661 79.0586847,-19.4066236 C78.9364962,-19.8745683 78.0785087,-19.061401 78.2801998,-19.6627393 C79.6034641,-19.3473969 78.7972333,-20.4342878 79.8361025,-20.3030285 C79.8318339,-20.1787057 79.5981283,-20.2037837 79.448194,-20.1749706 C79.7694057,-19.6328591 79.9684289,-20.3798632 80.6129867,-20.0469128 C80.5276148,-20.2037837 80.3632739,-20.3099649 80.02979,-20.3030285 C80.16265,-20.7704396 80.8045399,-20.2763498 81.5851591,-20.4305527 C81.4619035,-20.7384251 80.3872848,-20.4134784 80.2234775,-20.6861348 C80.7084965,-21.8103759 81.9170423,-21.3381627 81.5851591,-22.6118046 C82.9585794,-23.2440901 82.7061988,-23.6906918 83.1378604,-24.7882542 C83.3651631,-24.6826065 83.6602297,-24.6207119 84.1100328,-24.66073 C83.590865,-24.883764 84.0769512,-25.0374334 83.3331486,-25.1729613 C83.3358165,-25.5309897 83.8645886,-24.8688239 83.7221243,-25.4285434 C84.5726417,-25.5240532 83.5641863,-25.1761628 84.1100328,-25.1729613 C84.4611247,-25.5059117 84.0556082,-25.6046229 84.4995421,-25.9407748 C85.285497,-25.8191198 85.3932791,-25.8820816 85.8580223,-26.1968904 C87.105519,-25.2604675 87.0751053,-24.2424077 86.4401519,-23.1235023 C86.5025801,-22.9479564 86.9273052,-23.0173211 87.2186368,-22.9959781 C87.3141466,-22.4613366 86.0986643,-22.794287 86.0533105,-22.3540882 C86.0202289,-22.0771631 86.7416214,-22.2964621 87.022815,-22.2281646 C87.0788403,-21.8242489 87.4293987,-21.8567969 87.6076125,-21.459284 C87.7111259,-21.2245113 87.3728398,-20.8846245 87.413925,-20.6861348 C87.66844,-19.4722533 88.2158872,-18.088695 88.5787178,-16.7168755 C88.8108226,-15.8359443 88.7126449,-15.0345156 88.9676934,-13.9001366 C89.043461,-13.5666527 89.5679645,-13.2518438 89.5492894,-12.8714053 C89.4937977,-11.6532552 90.8512108,-9.54830446 89.9403994,-8.51743887 C90.8896281,-8.12259387 90.7839804,-6.92952169 90.9109711,-6.34098921 C91.710799,-6.36873507 91.7305413,-7.58901955 91.6867882,-7.74962542 C94.9079764,-7.3489111 95.0952609,-3.84546211 97.9039962,-2.75163475 C97.5272927,-2.56008157 97.188473,-1.93526604 98.2935054,-2.11027841 C97.9002611,-1.86483423 97.8437023,-1.59484562 98.0998179,-1.21440713 C99.4945812,-1.40809461 98.5624269,-1.13757243 99.4598989,-0.830233617 C100.319487,-1.4123632 99.4454924,-1.45985132 99.6535864,-2.2394034 C99.3003602,-2.4763104 98.4818572,-2.40747931 98.0998179,-2.62357691 C99.5810203,-3.14647975 102.504474,-2.27195143 104.121204,-3.13527469 C103.697013,-6.46477845 101.064357,-9.5931247 101.595797,-12.6152897 C101.923945,-14.4710611 104.176162,-15.9015739 103.538541,-17.7418717 C104.941841,-16.1021978 107.039322,-14.9240657 107.620385,-12.7428139 C107.89731,-13.6178758 108.210518,-14.1626552 109.174687,-14.7949408 C109.285136,-15.209528 109.11546,-15.4400321 108.785711,-15.5643549 C109.830983,-16.5338595 111.055536,-18.7044398 113.837059,-19.2790994 C113.503575,-19.4429067 113.30882,-19.6984888 113.252795,-20.0469128 C114.001933,-19.943933 113.562268,-19.0544646 114.612876,-19.1499744 Z" transform="rotate(-100 125.117 82.45)"/>
    <path fill="#F0F0F9" d="M62.032,80.536 C61.5199974,80.1199979 61.0080026,79.812001 60.496,79.612 C59.9839974,79.411999 59.4880024,79.312 59.008,79.312 C58.399997,79.312 57.9040019,79.4559986 57.52,79.744 C57.1359981,80.0320014 56.944,80.4079977 56.944,80.872 C56.944,81.1920016 57.039999,81.455999 57.232,81.664 C57.424001,81.872001 57.6759984,82.0519992 57.988,82.204 C58.3000016,82.3560008 58.651998,82.4879994 59.044,82.6 C59.436002,82.7120006 59.8239981,82.8319994 60.208,82.96 C61.7440077,83.4720026 62.8679964,84.1559957 63.58,85.012 C64.2920036,85.8680043 64.648,86.9839931 64.648,88.36 C64.648,89.2880046 64.4920016,90.1279962 64.18,90.88 C63.8679984,91.6320038 63.412003,92.2759973 62.812,92.812 C62.211997,93.3480027 61.4760044,93.7639985 60.604,94.06 C59.7319956,94.3560015 58.7440055,94.504 57.64,94.504 C55.3519886,94.504 53.2320098,93.8240068 51.28,92.464 L53.296,88.672 C54.0000035,89.2960031 54.6959966,89.7599985 55.384,90.064 C56.0720034,90.3680015 56.7519966,90.52 57.424,90.52 C58.1920038,90.52 58.7639981,90.3440018 59.14,89.992 C59.5160019,89.6399982 59.704,89.2400022 59.704,88.792 C59.704,88.5199986 59.6560005,88.284001 59.56,88.084 C59.4639995,87.883999 59.3040011,87.7000008 59.08,87.532 C58.8559989,87.3639992 58.5640018,87.2080007 58.204,87.064 C57.8439982,86.9199993 57.4080026,86.7600009 56.896,86.584 C56.287997,86.391999 55.6920029,86.1800012 55.108,85.948 C54.5239971,85.7159988 54.0040023,85.4080019 53.548,85.024 C53.0919977,84.6399981 52.7240014,84.1560029 52.444,83.572 C52.1639986,82.9879971 52.024,82.2480045 52.024,81.352 C52.024,80.4559955 52.1719985,79.6440036 52.468,78.916 C52.7640015,78.1879964 53.1799973,77.5640026 53.716,77.044 C54.2520027,76.5239974 54.9079961,76.1200014 55.684,75.832 C56.4600039,75.5439986 57.3279952,75.4 58.288,75.4 C59.1840045,75.4 60.1199951,75.5239988 61.096,75.772 C62.0720049,76.0200012 63.0079955,76.3839976 63.904,76.864 L62.032,80.536 Z M71.304,83.368 L77.04,75.904 L82.848,75.904 L75.672,84.472 L83.52,94 L77.424,94 L71.304,86.152 L71.304,94 L66.6,94 L66.6,75.904 L71.304,75.904 L71.304,83.368 Z M89.312,83.992 L90.2,83.992 C91.1280046,83.992 91.8399975,83.8000019 92.336,83.416 C92.8320025,83.0319981 93.08,82.4800036 93.08,81.76 C93.08,81.0399964 92.8320025,80.4880019 92.336,80.104 C91.8399975,79.7199981 91.1280046,79.528 90.2,79.528 L89.312,79.528 L89.312,83.992 Z M99.656,94 L93.8,94 L89.312,87.04 L89.312,94 L84.608,94 L84.608,75.904 L91.928,75.904 C92.936005,75.904 93.8159962,76.0519985 94.568,76.348 C95.3200038,76.6440015 95.9399976,77.0479974 96.428,77.56 C96.9160024,78.0720026 97.2839988,78.6639966 97.532,79.336 C97.7800012,80.0080034 97.904,80.7279962 97.904,81.496 C97.904,82.8720069 97.5720033,83.9879957 96.908,84.844 C96.2439967,85.7000043 95.2640065,86.2799985 93.968,86.584 L99.656,94 Z M105.328,82.888 L112.12,82.888 L112.12,75.904 L116.824,75.904 L116.824,94 L112.12,94 L112.12,86.536 L105.328,86.536 L105.328,94 L100.624,94 L100.624,75.904 L105.328,75.904 L105.328,82.888 Z M118.8,84.952 C118.8,83.6079933 119.047998,82.3560058 119.544,81.196 C120.040002,80.0359942 120.727996,79.0240043 121.608,78.16 C122.488004,77.2959957 123.539994,76.6200024 124.764,76.132 C125.988006,75.6439976 127.335993,75.4 128.808,75.4 C130.264007,75.4 131.607994,75.6439976 132.84,76.132 C134.072006,76.6200024 135.131996,77.2959957 136.02,78.16 C136.908004,79.0240043 137.599998,80.0359942 138.096,81.196 C138.592002,82.3560058 138.84,83.6079933 138.84,84.952 C138.84,86.2000062 138.636002,87.3599946 138.228,88.432 C137.819998,89.5040054 137.232004,90.4559958 136.464,91.288 L139.536,94.504 L135.216,95.176 L133.56,93.472 C132.855996,93.7920016 132.108004,94.0439991 131.316,94.228 C130.523996,94.4120009 129.688004,94.504 128.808,94.504 C127.335993,94.504 125.988006,94.2600024 124.764,93.772 C123.539994,93.2839976 122.488004,92.6080043 121.608,91.744 C120.727996,90.8799957 120.040002,89.8680058 119.544,88.708 C119.047998,87.5479942 118.8,86.2960067 118.8,84.952 Z M123.72,84.952 C123.72,85.6720036 123.855999,86.335997 124.128,86.944 C124.400001,87.552003 124.767998,88.0799978 125.232,88.528 C125.696002,88.9760022 126.235997,89.3239988 126.852,89.572 C127.468003,89.8200012 128.119997,89.944 128.808,89.944 C129.224002,89.944 129.639998,89.8960005 130.056,89.8 L127.368,86.968 L131.808,86.416 L133.056,87.736 C133.632003,86.935996 133.92,86.0080053 133.92,84.952 C133.92,84.2319964 133.784001,83.568003 133.512,82.96 C133.239999,82.351997 132.868002,81.8240022 132.396,81.376 C131.923998,80.9279978 131.380003,80.5800012 130.764,80.332 C130.147997,80.0839988 129.496003,79.96 128.808,79.96 C128.119997,79.96 127.468003,80.0839988 126.852,80.332 C126.235997,80.5800012 125.696002,80.9279978 125.232,81.376 C124.767998,81.8240022 124.400001,82.351997 124.128,82.96 C123.855999,83.568003 123.72,84.2319964 123.72,84.952 Z M141.192,91.696 C141.192,91.3119981 141.263999,90.9480017 141.408,90.604 C141.552001,90.2599983 141.751999,89.9600013 142.008,89.704 C142.264001,89.4479987 142.563998,89.2480007 142.908,89.104 C143.252002,88.9599993 143.615998,88.888 144,88.888 C144.384002,88.888 144.747998,88.9599993 145.092,89.104 C145.436002,89.2480007 145.735999,89.4479987 145.992,89.704 C146.248001,89.9600013 146.447999,90.2599983 146.592,90.604 C146.736001,90.9480017 146.808,91.3119981 146.808,91.696 C146.808,92.0800019 146.736001,92.4439983 146.592,92.788 C146.447999,93.1320017 146.248001,93.4319987 145.992,93.688 C145.735999,93.9440013 145.436002,94.1439993 145.092,94.288 C144.747998,94.4320007 144.384002,94.504 144,94.504 C143.615998,94.504 143.252002,94.4320007 142.908,94.288 C142.563998,94.1439993 142.264001,93.9440013 142.008,93.688 C141.751999,93.4319987 141.552001,93.1320017 141.408,92.788 C141.263999,92.4439983 141.192,92.0800019 141.192,91.696 Z M154.68,90.016 L155.76,90.016 C156.576004,90.016 157.303997,89.8880013 157.944,89.632 C158.584003,89.3759987 159.123998,89.0240022 159.564,88.576 C160.004002,88.1279978 160.339999,87.5960031 160.572,86.98 C160.804001,86.3639969 160.92,85.6880037 160.92,84.952 C160.92,84.2319964 160.800001,83.5600031 160.56,82.936 C160.319999,82.3119969 159.980002,81.7760022 159.54,81.328 C159.099998,80.8799978 158.560003,80.5280013 157.92,80.272 C157.279997,80.0159987 156.560004,79.888 155.76,79.888 L154.68,79.888 L154.68,90.016 Z M149.976,75.904 L156.936,75.904 C158.168006,75.904 159.323995,76.1519975 160.404,76.648 C161.484005,77.1440025 162.427996,77.8039959 163.236,78.628 C164.044004,79.4520041 164.679998,80.4119945 165.144,81.508 C165.608002,82.6040055 165.84,83.751994 165.84,84.952 C165.84,86.1360059 165.612002,87.2759945 165.156,88.372 C164.699998,89.4680055 164.068004,90.4319958 163.26,91.264 C162.451996,92.0960042 161.508005,92.7599975 160.428,93.256 C159.347995,93.7520025 158.184006,94 156.936,94 L149.976,94 L149.976,75.904 Z M178.776,80.536 C178.263997,80.1199979 177.752003,79.812001 177.24,79.612 C176.727997,79.411999 176.232002,79.312 175.752,79.312 C175.143997,79.312 174.648002,79.4559986 174.264,79.744 C173.879998,80.0320014 173.688,80.4079977 173.688,80.872 C173.688,81.1920016 173.783999,81.455999 173.976,81.664 C174.168001,81.872001 174.419998,82.0519992 174.732,82.204 C175.044002,82.3560008 175.395998,82.4879994 175.788,82.6 C176.180002,82.7120006 176.567998,82.8319994 176.952,82.96 C178.488008,83.4720026 179.611996,84.1559957 180.324,85.012 C181.036004,85.8680043 181.392,86.9839931 181.392,88.36 C181.392,89.2880046 181.236002,90.1279962 180.924,90.88 C180.611998,91.6320038 180.156003,92.2759973 179.556,92.812 C178.955997,93.3480027 178.220004,93.7639985 177.348,94.06 C176.475996,94.3560015 175.488006,94.504 174.384,94.504 C172.095989,94.504 169.97601,93.8240068 168.024,92.464 L170.04,88.672 C170.744004,89.2960031 171.439997,89.7599985 172.128,90.064 C172.816003,90.3680015 173.495997,90.52 174.168,90.52 C174.936004,90.52 175.507998,90.3440018 175.884,89.992 C176.260002,89.6399982 176.448,89.2400022 176.448,88.792 C176.448,88.5199986 176.4,88.284001 176.304,88.084 C176.208,87.883999 176.048001,87.7000008 175.824,87.532 C175.599999,87.3639992 175.308002,87.2080007 174.948,87.064 C174.587998,86.9199993 174.152003,86.7600009 173.64,86.584 C173.031997,86.391999 172.436003,86.1800012 171.852,85.948 C171.267997,85.7159988 170.748002,85.4080019 170.292,85.024 C169.835998,84.6399981 169.468001,84.1560029 169.188,83.572 C168.907999,82.9879971 168.768,82.2480045 168.768,81.352 C168.768,80.4559955 168.915999,79.6440036 169.212,78.916 C169.508001,78.1879964 169.923997,77.5640026 170.46,77.044 C170.996003,76.5239974 171.651996,76.1200014 172.428,75.832 C173.204004,75.5439986 174.071995,75.4 175.032,75.4 C175.928004,75.4 176.863995,75.5239988 177.84,75.772 C178.816005,76.0200012 179.751996,76.3839976 180.648,76.864 L178.776,80.536 Z M32.08,84.952 C32.08,83.6079933 32.3279975,82.3560058 32.824,81.196 C33.3200025,80.0359942 34.0079956,79.0240043 34.888,78.16 C35.7680044,77.2959957 36.8199939,76.6200024 38.044,76.132 C39.2680061,75.6439976 40.6159926,75.4 42.088,75.4 C43.5440073,75.4 44.8879938,75.6439976 46.12,76.132 C47.3520062,76.6200024 48.4119956,77.2959957 49.3,78.16 C50.1880044,79.0240043 50.8799975,80.0359942 51.376,81.196 C51.8720025,82.3560058 52.12,83.6079933 52.12,84.952 C52.12,86.2960067 51.8720025,87.5479942 51.376,88.708 C50.8799975,89.8680058 50.1880044,90.8799957 49.3,91.744 C48.4119956,92.6080043 47.3520062,93.2839976 46.12,93.772 C44.8879938,94.2600024 43.5440073,94.504 42.088,94.504 C40.6159926,94.504 39.2680061,94.2600024 38.044,93.772 C36.8199939,93.2839976 35.7680044,92.6080043 34.888,91.744 C34.0079956,90.8799957 33.3200025,89.8680058 32.824,88.708 C32.3279975,87.5479942 32.08,86.2960067 32.08,84.952 Z M37,84.952 C37,85.6720036 37.1359986,86.335997 37.408,86.944 C37.6800014,87.552003 38.0479977,88.0799978 38.512,88.528 C38.9760023,88.9760022 39.5159969,89.3239988 40.132,89.572 C40.7480031,89.8200012 41.3999966,89.944 42.088,89.944 C42.7760034,89.944 43.4279969,89.8200012 44.044,89.572 C44.6600031,89.3239988 45.2039976,88.9760022 45.676,88.528 C46.1480024,88.0799978 46.5199986,87.552003 46.792,86.944 C47.0640014,86.335997 47.2,85.6720036 47.2,84.952 C47.2,84.2319964 47.0640014,83.568003 46.792,82.96 C46.5199986,82.351997 46.1480024,81.8240022 45.676,81.376 C45.2039976,80.9279978 44.6600031,80.5800012 44.044,80.332 C43.4279969,80.0839988 42.7760034,79.96 42.088,79.96 C41.3999966,79.96 40.7480031,80.0839988 40.132,80.332 C39.5159969,80.5800012 38.9760023,80.9279978 38.512,81.376 C38.0479977,81.8240022 37.6800014,82.351997 37.408,82.96 C37.1359986,83.568003 37,84.2319964 37,84.952 Z"/>
  </g>
</svg>
