<svg xmlns="http://www.w3.org/2000/svg" width="162" height="34" viewBox="0 0 162 34">
  <defs>
    <linearGradient id="ds-logo-a" x1="69.89%" x2="8.807%" y1="4.646%" y2="95.74%">
      <stop offset="0%" stop-color="#B4EC51"/>
      <stop offset="100%" stop-color="#429321"/>
    </linearGradient>
    <linearGradient id="ds-logo-b" x1="50%" x2="50%" y1="0%" y2="100%">
      <stop offset="0%" stop-color="#FAD961"/>
      <stop offset="100%" stop-color="#F76B1C"/>
    </linearGradient>
    <linearGradient id="ds-logo-c" x1="78.314%" x2="21.67%" y1="0%" y2="100%">
      <stop offset="0%" stop-color="#F5515F"/>
      <stop offset="100%" stop-color="#9F041B"/>
    </linearGradient>
    <linearGradient id="ds-logo-d" x1="100%" x2="0%" y1="0%" y2="100%">
      <stop offset="0%" stop-color="#30A4FF"/>
      <stop offset="100%" stop-color="#5A40EE"/>
    </linearGradient>
  </defs>
  <g fill="none" fill-rule="evenodd">
    <rect width="25" height="28" y="4" fill="url(#ds-logo-a)" rx="8"/>
    <rect width="25" height="30" x="2" y="2" fill="url(#ds-logo-b)" rx="8"/>
    <rect width="25" height="31" x="4" y="1" fill="url(#ds-logo-c)" rx="8"/>
    <rect width="25" height="32" x="6" fill="url(#ds-logo-d)" rx="8"/>
    <path fill="#5252ED" d="M42.032,18.536 C41.5199974,18.1199979 41.0080026,17.812001 40.496,17.612 C39.9839974,17.411999 39.4880024,17.312 39.008,17.312 C38.399997,17.312 37.9040019,17.4559986 37.52,17.744 C37.1359981,18.0320014 36.944,18.4079977 36.944,18.872 C36.944,19.1920016 37.039999,19.455999 37.232,19.664 C37.424001,19.872001 37.6759984,20.0519992 37.988,20.204 C38.3000016,20.3560008 38.651998,20.4879994 39.044,20.6 C39.436002,20.7120006 39.8239981,20.8319994 40.208,20.96 C41.7440077,21.4720026 42.8679964,22.1559957 43.58,23.012 C44.2920036,23.8680043 44.648,24.9839931 44.648,26.36 C44.648,27.2880046 44.4920016,28.1279962 44.18,28.88 C43.8679984,29.6320038 43.412003,30.2759973 42.812,30.812 C42.211997,31.3480027 41.4760044,31.7639985 40.604,32.06 C39.7319956,32.3560015 38.7440055,32.504 37.64,32.504 C35.3519886,32.504 33.2320098,31.8240068 31.28,30.464 L33.296,26.672 C34.0000035,27.2960031 34.6959966,27.7599985 35.384,28.064 C36.0720034,28.3680015 36.7519966,28.52 37.424,28.52 C38.1920038,28.52 38.7639981,28.3440018 39.14,27.992 C39.5160019,27.6399982 39.704,27.2400022 39.704,26.792 C39.704,26.5199986 39.6560005,26.284001 39.56,26.084 C39.4639995,25.883999 39.3040011,25.7000008 39.08,25.532 C38.8559989,25.3639992 38.5640018,25.2080007 38.204,25.064 C37.8439982,24.9199993 37.4080026,24.7600009 36.896,24.584 C36.287997,24.391999 35.6920029,24.1800012 35.108,23.948 C34.5239971,23.7159988 34.0040023,23.4080019 33.548,23.024 C33.0919977,22.6399981 32.7240014,22.1560029 32.444,21.572 C32.1639986,20.9879971 32.024,20.2480045 32.024,19.352 C32.024,18.4559955 32.1719985,17.6440036 32.468,16.916 C32.7640015,16.1879964 33.1799973,15.5640026 33.716,15.044 C34.2520027,14.5239974 34.9079961,14.1200014 35.684,13.832 C36.4600039,13.5439986 37.3279952,13.4 38.288,13.4 C39.1840045,13.4 40.1199951,13.5239988 41.096,13.772 C42.0720049,14.0200012 43.0079955,14.3839976 43.904,14.864 L42.032,18.536 Z M51.304,21.368 L57.04,13.904 L62.848,13.904 L55.672,22.472 L63.52,32 L57.424,32 L51.304,24.152 L51.304,32 L46.6,32 L46.6,13.904 L51.304,13.904 L51.304,21.368 Z M69.312,21.992 L70.2,21.992 C71.1280046,21.992 71.8399975,21.8000019 72.336,21.416 C72.8320025,21.0319981 73.08,20.4800036 73.08,19.76 C73.08,19.0399964 72.8320025,18.4880019 72.336,18.104 C71.8399975,17.7199981 71.1280046,17.528 70.2,17.528 L69.312,17.528 L69.312,21.992 Z M79.656,32 L73.8,32 L69.312,25.04 L69.312,32 L64.608,32 L64.608,13.904 L71.928,13.904 C72.936005,13.904 73.8159962,14.0519985 74.568,14.348 C75.3200038,14.6440015 75.9399976,15.0479974 76.428,15.56 C76.9160024,16.0720026 77.2839988,16.6639966 77.532,17.336 C77.7800012,18.0080034 77.904,18.7279962 77.904,19.496 C77.904,20.8720069 77.5720033,21.9879957 76.908,22.844 C76.2439967,23.7000043 75.2640065,24.2799985 73.968,24.584 L79.656,32 Z M85.328,20.888 L92.12,20.888 L92.12,13.904 L96.824,13.904 L96.824,32 L92.12,32 L92.12,24.536 L85.328,24.536 L85.328,32 L80.624,32 L80.624,13.904 L85.328,13.904 L85.328,20.888 Z M98.8,22.952 C98.8,21.6079933 99.0479975,20.3560058 99.544,19.196 C100.040002,18.0359942 100.727996,17.0240043 101.608,16.16 C102.488004,15.2959957 103.539994,14.6200024 104.764,14.132 C105.988006,13.6439976 107.335993,13.4 108.808,13.4 C110.264007,13.4 111.607994,13.6439976 112.84,14.132 C114.072006,14.6200024 115.131996,15.2959957 116.02,16.16 C116.908004,17.0240043 117.599998,18.0359942 118.096,19.196 C118.592002,20.3560058 118.84,21.6079933 118.84,22.952 C118.84,24.2000062 118.636002,25.3599946 118.228,26.432 C117.819998,27.5040054 117.232004,28.4559958 116.464,29.288 L119.536,32.504 L115.216,33.176 L113.56,31.472 C112.855996,31.7920016 112.108004,32.0439991 111.316,32.228 C110.523996,32.4120009 109.688004,32.504 108.808,32.504 C107.335993,32.504 105.988006,32.2600024 104.764,31.772 C103.539994,31.2839976 102.488004,30.6080043 101.608,29.744 C100.727996,28.8799957 100.040002,27.8680058 99.544,26.708 C99.0479975,25.5479942 98.8,24.2960067 98.8,22.952 Z M103.72,22.952 C103.72,23.6720036 103.855999,24.335997 104.128,24.944 C104.400001,25.552003 104.767998,26.0799978 105.232,26.528 C105.696002,26.9760022 106.235997,27.3239988 106.852,27.572 C107.468003,27.8200012 108.119997,27.944 108.808,27.944 C109.224002,27.944 109.639998,27.8960005 110.056,27.8 L107.368,24.968 L111.808,24.416 L113.056,25.736 C113.632003,24.935996 113.92,24.0080053 113.92,22.952 C113.92,22.2319964 113.784001,21.568003 113.512,20.96 C113.239999,20.351997 112.868002,19.8240022 112.396,19.376 C111.923998,18.9279978 111.380003,18.5800012 110.764,18.332 C110.147997,18.0839988 109.496003,17.96 108.808,17.96 C108.119997,17.96 107.468003,18.0839988 106.852,18.332 C106.235997,18.5800012 105.696002,18.9279978 105.232,19.376 C104.767998,19.8240022 104.400001,20.351997 104.128,20.96 C103.855999,21.568003 103.72,22.2319964 103.72,22.952 Z M121.192,29.696 C121.192,29.3119981 121.263999,28.9480017 121.408,28.604 C121.552001,28.2599983 121.751999,27.9600013 122.008,27.704 C122.264001,27.4479987 122.563998,27.2480007 122.908,27.104 C123.252002,26.9599993 123.615998,26.888 124,26.888 C124.384002,26.888 124.747998,26.9599993 125.092,27.104 C125.436002,27.2480007 125.735999,27.4479987 125.992,27.704 C126.248001,27.9600013 126.447999,28.2599983 126.592,28.604 C126.736001,28.9480017 126.808,29.3119981 126.808,29.696 C126.808,30.0800019 126.736001,30.4439983 126.592,30.788 C126.447999,31.1320017 126.248001,31.4319987 125.992,31.688 C125.735999,31.9440013 125.436002,32.1439993 125.092,32.288 C124.747998,32.4320007 124.384002,32.504 124,32.504 C123.615998,32.504 123.252002,32.4320007 122.908,32.288 C122.563998,32.1439993 122.264001,31.9440013 122.008,31.688 C121.751999,31.4319987 121.552001,31.1320017 121.408,30.788 C121.263999,30.4439983 121.192,30.0800019 121.192,29.696 Z M134.68,28.016 L135.76,28.016 C136.576004,28.016 137.303997,27.8880013 137.944,27.632 C138.584003,27.3759987 139.123998,27.0240022 139.564,26.576 C140.004002,26.1279978 140.339999,25.5960031 140.572,24.98 C140.804001,24.3639969 140.92,23.6880037 140.92,22.952 C140.92,22.2319964 140.800001,21.5600031 140.56,20.936 C140.319999,20.3119969 139.980002,19.7760022 139.54,19.328 C139.099998,18.8799978 138.560003,18.5280013 137.92,18.272 C137.279997,18.0159987 136.560004,17.888 135.76,17.888 L134.68,17.888 L134.68,28.016 Z M129.976,13.904 L136.936,13.904 C138.168006,13.904 139.323995,14.1519975 140.404,14.648 C141.484005,15.1440025 142.427996,15.8039959 143.236,16.628 C144.044004,17.4520041 144.679998,18.4119945 145.144,19.508 C145.608002,20.6040055 145.84,21.751994 145.84,22.952 C145.84,24.1360059 145.612002,25.2759945 145.156,26.372 C144.699998,27.4680055 144.068004,28.4319958 143.26,29.264 C142.451996,30.0960042 141.508005,30.7599975 140.428,31.256 C139.347995,31.7520025 138.184006,32 136.936,32 L129.976,32 L129.976,13.904 Z M158.776,18.536 C158.263997,18.1199979 157.752003,17.812001 157.24,17.612 C156.727997,17.411999 156.232002,17.312 155.752,17.312 C155.143997,17.312 154.648002,17.4559986 154.264,17.744 C153.879998,18.0320014 153.688,18.4079977 153.688,18.872 C153.688,19.1920016 153.783999,19.455999 153.976,19.664 C154.168001,19.872001 154.419998,20.0519992 154.732,20.204 C155.044002,20.3560008 155.395998,20.4879994 155.788,20.6 C156.180002,20.7120006 156.567998,20.8319994 156.952,20.96 C158.488008,21.4720026 159.611996,22.1559957 160.324,23.012 C161.036004,23.8680043 161.392,24.9839931 161.392,26.36 C161.392,27.2880046 161.236002,28.1279962 160.924,28.88 C160.611998,29.6320038 160.156003,30.2759973 159.556,30.812 C158.955997,31.3480027 158.220004,31.7639985 157.348,32.06 C156.475996,32.3560015 155.488006,32.504 154.384,32.504 C152.095989,32.504 149.97601,31.8240068 148.024,30.464 L150.04,26.672 C150.744004,27.2960031 151.439997,27.7599985 152.128,28.064 C152.816003,28.3680015 153.495997,28.52 154.168,28.52 C154.936004,28.52 155.507998,28.3440018 155.884,27.992 C156.260002,27.6399982 156.448,27.2400022 156.448,26.792 C156.448,26.5199986 156.4,26.284001 156.304,26.084 C156.208,25.883999 156.048001,25.7000008 155.824,25.532 C155.599999,25.3639992 155.308002,25.2080007 154.948,25.064 C154.587998,24.9199993 154.152003,24.7600009 153.64,24.584 C153.031997,24.391999 152.436003,24.1800012 151.852,23.948 C151.267997,23.7159988 150.748002,23.4080019 150.292,23.024 C149.835998,22.6399981 149.468001,22.1560029 149.188,21.572 C148.907999,20.9879971 148.768,20.2480045 148.768,19.352 C148.768,18.4559955 148.915999,17.6440036 149.212,16.916 C149.508001,16.1879964 149.923997,15.5640026 150.46,15.044 C150.996003,14.5239974 151.651996,14.1200014 152.428,13.832 C153.204004,13.5439986 154.071995,13.4 155.032,13.4 C155.928004,13.4 156.863995,13.5239988 157.84,13.772 C158.816005,14.0200012 159.751996,14.3839976 160.648,14.864 L158.776,18.536 Z"/>
    <path fill="#FFF" d="M17,22.952 C17,23.6720036 17.1359986,24.335997 17.408,24.944 C17.6800014,25.552003 18.0479977,26.0799978 18.512,26.528 C18.9760023,26.9760022 19.5159969,27.3239988 20.132,27.572 C20.7480031,27.8200012 21.3999966,27.944 22.088,27.944 C22.7760034,27.944 23.4279969,27.8200012 24.044,27.572 C24.6600031,27.3239988 25.2039976,26.9760022 25.676,26.528 C26.1480024,26.0799978 26.5199986,25.552003 26.792,24.944 C27.0640014,24.335997 27.2,23.6720036 27.2,22.952 C27.2,22.2319964 27.0640014,21.568003 26.792,20.96 C26.5199986,20.351997 26.1480024,19.8240022 25.676,19.376 C25.2039976,18.9279978 24.6600031,18.5800012 24.044,18.332 C23.4279969,18.0839988 22.7760034,17.96 22.088,17.96 C21.3999966,17.96 20.7480031,18.0839988 20.132,18.332 C19.5159969,18.5800012 18.9760023,18.9279978 18.512,19.376 C18.0479977,19.8240022 17.6800014,20.351997 17.408,20.96 C17.1359986,21.568003 17,22.2319964 17,22.952 Z"/>
    <path fill="#FFF" d="M12.08,22.952 C12.08,21.6079933 12.3279975,20.3560058 12.824,19.196 C13.3200025,18.0359942 14.0079956,17.0240043 14.888,16.16 C15.7680044,15.2959957 16.8199939,14.6200024 18.044,14.132 C19.2680061,13.6439976 20.6159926,13.4 22.088,13.4 C23.5440073,13.4 24.8879938,13.6439976 26.12,14.132 C27.3520062,14.6200024 28.4119956,15.2959957 29.3,16.16 C30.1880044,17.0240043 30.8799975,18.0359942 31.376,19.196 C31.8720025,20.3560058 32.12,21.6079933 32.12,22.952 C32.12,24.2960067 31.8720025,25.5479942 31.376,26.708 C30.8799975,27.8680058 30.1880044,28.8799957 29.3,29.744 C28.4119956,30.6080043 27.3520062,31.2839976 26.12,31.772 C24.8879938,32.2600024 23.5440073,32.504 22.088,32.504 C20.6159926,32.504 19.2680061,32.2600024 18.044,31.772 C16.8199939,31.2839976 15.7680044,30.6080043 14.888,29.744 C14.0079956,28.8799957 13.3200025,27.8680058 12.824,26.708 C12.3279975,25.5479942 12.08,24.2960067 12.08,22.952 Z"/>
  </g>
</svg>
