<svg xmlns="http://www.w3.org/2000/svg" width="173" height="34" viewBox="0 0 173 34">
  <defs>
    <linearGradient id="ds-logo-a" x1="69.89%" x2="8.807%" y1="4.646%" y2="95.74%">
      <stop offset="0%" stop-color="#B4EC51"/>
      <stop offset="100%" stop-color="#429321"/>
    </linearGradient>
    <linearGradient id="ds-logo-b" x1="50%" x2="50%" y1="0%" y2="100%">
      <stop offset="0%" stop-color="#FAD961"/>
      <stop offset="100%" stop-color="#F76B1C"/>
    </linearGradient>
    <linearGradient id="ds-logo-c" x1="78.314%" x2="21.67%" y1="0%" y2="100%">
      <stop offset="0%" stop-color="#F5515F"/>
      <stop offset="100%" stop-color="#9F041B"/>
    </linearGradient>
    <linearGradient id="ds-logo-d" x1="100%" x2="0%" y1="0%" y2="100%">
      <stop offset="0%" stop-color="#30A4FF"/>
      <stop offset="100%" stop-color="#5A40EE"/>
    </linearGradient>
  </defs>
  <g fill="none" fill-rule="evenodd">
    <rect width="34" height="28" y="4" fill="url(#ds-logo-a)" rx="8"/>
    <rect width="34" height="30" x="2" y="2" fill="url(#ds-logo-b)" rx="8"/>
    <rect width="34" height="31" x="4" y="1" fill="url(#ds-logo-c)" rx="8"/>
    <rect width="34" height="32" x="6" fill="url(#ds-logo-d)" rx="8"/>
    <path fill="#5252ED" d="M53.032,18.536 C52.5199974,18.1199979 52.0080026,17.812001 51.496,17.612 C50.9839974,17.411999 50.4880024,17.312 50.008,17.312 C49.399997,17.312 48.9040019,17.4559986 48.52,17.744 C48.1359981,18.0320014 47.944,18.4079977 47.944,18.872 C47.944,19.1920016 48.039999,19.455999 48.232,19.664 C48.424001,19.872001 48.6759984,20.0519992 48.988,20.204 C49.3000016,20.3560008 49.651998,20.4879994 50.044,20.6 C50.436002,20.7120006 50.8239981,20.8319994 51.208,20.96 C52.7440077,21.4720026 53.8679964,22.1559957 54.58,23.012 C55.2920036,23.8680043 55.648,24.9839931 55.648,26.36 C55.648,27.2880046 55.4920016,28.1279962 55.18,28.88 C54.8679984,29.6320038 54.412003,30.2759973 53.812,30.812 C53.211997,31.3480027 52.4760044,31.7639985 51.604,32.06 C50.7319956,32.3560015 49.7440055,32.504 48.64,32.504 C46.3519886,32.504 44.2320098,31.8240068 42.28,30.464 L44.296,26.672 C45.0000035,27.2960031 45.6959966,27.7599985 46.384,28.064 C47.0720034,28.3680015 47.7519966,28.52 48.424,28.52 C49.1920038,28.52 49.7639981,28.3440018 50.14,27.992 C50.5160019,27.6399982 50.704,27.2400022 50.704,26.792 C50.704,26.5199986 50.6560005,26.284001 50.56,26.084 C50.4639995,25.883999 50.3040011,25.7000008 50.08,25.532 C49.8559989,25.3639992 49.5640018,25.2080007 49.204,25.064 C48.8439982,24.9199993 48.4080026,24.7600009 47.896,24.584 C47.287997,24.391999 46.6920029,24.1800012 46.108,23.948 C45.5239971,23.7159988 45.0040023,23.4080019 44.548,23.024 C44.0919977,22.6399981 43.7240014,22.1560029 43.444,21.572 C43.1639986,20.9879971 43.024,20.2480045 43.024,19.352 C43.024,18.4559955 43.1719985,17.6440036 43.468,16.916 C43.7640015,16.1879964 44.1799973,15.5640026 44.716,15.044 C45.2520027,14.5239974 45.9079961,14.1200014 46.684,13.832 C47.4600039,13.5439986 48.3279952,13.4 49.288,13.4 C50.1840045,13.4 51.1199951,13.5239988 52.096,13.772 C53.0720049,14.0200012 54.0079955,14.3839976 54.904,14.864 L53.032,18.536 Z M62.304,21.368 L68.04,13.904 L73.848,13.904 L66.672,22.472 L74.52,32 L68.424,32 L62.304,24.152 L62.304,32 L57.6,32 L57.6,13.904 L62.304,13.904 L62.304,21.368 Z M80.312,21.992 L81.2,21.992 C82.1280046,21.992 82.8399975,21.8000019 83.336,21.416 C83.8320025,21.0319981 84.08,20.4800036 84.08,19.76 C84.08,19.0399964 83.8320025,18.4880019 83.336,18.104 C82.8399975,17.7199981 82.1280046,17.528 81.2,17.528 L80.312,17.528 L80.312,21.992 Z M90.656,32 L84.8,32 L80.312,25.04 L80.312,32 L75.608,32 L75.608,13.904 L82.928,13.904 C83.936005,13.904 84.8159962,14.0519985 85.568,14.348 C86.3200038,14.6440015 86.9399976,15.0479974 87.428,15.56 C87.9160024,16.0720026 88.2839988,16.6639966 88.532,17.336 C88.7800012,18.0080034 88.904,18.7279962 88.904,19.496 C88.904,20.8720069 88.5720033,21.9879957 87.908,22.844 C87.2439967,23.7000043 86.2640065,24.2799985 84.968,24.584 L90.656,32 Z M96.328,20.888 L103.12,20.888 L103.12,13.904 L107.824,13.904 L107.824,32 L103.12,32 L103.12,24.536 L96.328,24.536 L96.328,32 L91.624,32 L91.624,13.904 L96.328,13.904 L96.328,20.888 Z M109.8,22.952 C109.8,21.6079933 110.047998,20.3560058 110.544,19.196 C111.040002,18.0359942 111.727996,17.0240043 112.608,16.16 C113.488004,15.2959957 114.539994,14.6200024 115.764,14.132 C116.988006,13.6439976 118.335993,13.4 119.808,13.4 C121.264007,13.4 122.607994,13.6439976 123.84,14.132 C125.072006,14.6200024 126.131996,15.2959957 127.02,16.16 C127.908004,17.0240043 128.599998,18.0359942 129.096,19.196 C129.592002,20.3560058 129.84,21.6079933 129.84,22.952 C129.84,24.2000062 129.636002,25.3599946 129.228,26.432 C128.819998,27.5040054 128.232004,28.4559958 127.464,29.288 L130.536,32.504 L126.216,33.176 L124.56,31.472 C123.855996,31.7920016 123.108004,32.0439991 122.316,32.228 C121.523996,32.4120009 120.688004,32.504 119.808,32.504 C118.335993,32.504 116.988006,32.2600024 115.764,31.772 C114.539994,31.2839976 113.488004,30.6080043 112.608,29.744 C111.727996,28.8799957 111.040002,27.8680058 110.544,26.708 C110.047998,25.5479942 109.8,24.2960067 109.8,22.952 Z M114.72,22.952 C114.72,23.6720036 114.855999,24.335997 115.128,24.944 C115.400001,25.552003 115.767998,26.0799978 116.232,26.528 C116.696002,26.9760022 117.235997,27.3239988 117.852,27.572 C118.468003,27.8200012 119.119997,27.944 119.808,27.944 C120.224002,27.944 120.639998,27.8960005 121.056,27.8 L118.368,24.968 L122.808,24.416 L124.056,25.736 C124.632003,24.935996 124.92,24.0080053 124.92,22.952 C124.92,22.2319964 124.784001,21.568003 124.512,20.96 C124.239999,20.351997 123.868002,19.8240022 123.396,19.376 C122.923998,18.9279978 122.380003,18.5800012 121.764,18.332 C121.147997,18.0839988 120.496003,17.96 119.808,17.96 C119.119997,17.96 118.468003,18.0839988 117.852,18.332 C117.235997,18.5800012 116.696002,18.9279978 116.232,19.376 C115.767998,19.8240022 115.400001,20.351997 115.128,20.96 C114.855999,21.568003 114.72,22.2319964 114.72,22.952 Z M132.192,29.696 C132.192,29.3119981 132.263999,28.9480017 132.408,28.604 C132.552001,28.2599983 132.751999,27.9600013 133.008,27.704 C133.264001,27.4479987 133.563998,27.2480007 133.908,27.104 C134.252002,26.9599993 134.615998,26.888 135,26.888 C135.384002,26.888 135.747998,26.9599993 136.092,27.104 C136.436002,27.2480007 136.735999,27.4479987 136.992,27.704 C137.248001,27.9600013 137.447999,28.2599983 137.592,28.604 C137.736001,28.9480017 137.808,29.3119981 137.808,29.696 C137.808,30.0800019 137.736001,30.4439983 137.592,30.788 C137.447999,31.1320017 137.248001,31.4319987 136.992,31.688 C136.735999,31.9440013 136.436002,32.1439993 136.092,32.288 C135.747998,32.4320007 135.384002,32.504 135,32.504 C134.615998,32.504 134.252002,32.4320007 133.908,32.288 C133.563998,32.1439993 133.264001,31.9440013 133.008,31.688 C132.751999,31.4319987 132.552001,31.1320017 132.408,30.788 C132.263999,30.4439983 132.192,30.0800019 132.192,29.696 Z M145.68,28.016 L146.76,28.016 C147.576004,28.016 148.303997,27.8880013 148.944,27.632 C149.584003,27.3759987 150.123998,27.0240022 150.564,26.576 C151.004002,26.1279978 151.339999,25.5960031 151.572,24.98 C151.804001,24.3639969 151.92,23.6880037 151.92,22.952 C151.92,22.2319964 151.800001,21.5600031 151.56,20.936 C151.319999,20.3119969 150.980002,19.7760022 150.54,19.328 C150.099998,18.8799978 149.560003,18.5280013 148.92,18.272 C148.279997,18.0159987 147.560004,17.888 146.76,17.888 L145.68,17.888 L145.68,28.016 Z M140.976,13.904 L147.936,13.904 C149.168006,13.904 150.323995,14.1519975 151.404,14.648 C152.484005,15.1440025 153.427996,15.8039959 154.236,16.628 C155.044004,17.4520041 155.679998,18.4119945 156.144,19.508 C156.608002,20.6040055 156.84,21.751994 156.84,22.952 C156.84,24.1360059 156.612002,25.2759945 156.156,26.372 C155.699998,27.4680055 155.068004,28.4319958 154.26,29.264 C153.451996,30.0960042 152.508005,30.7599975 151.428,31.256 C150.347995,31.7520025 149.184006,32 147.936,32 L140.976,32 L140.976,13.904 Z M169.776,18.536 C169.263997,18.1199979 168.752003,17.812001 168.24,17.612 C167.727997,17.411999 167.232002,17.312 166.752,17.312 C166.143997,17.312 165.648002,17.4559986 165.264,17.744 C164.879998,18.0320014 164.688,18.4079977 164.688,18.872 C164.688,19.1920016 164.783999,19.455999 164.976,19.664 C165.168001,19.872001 165.419998,20.0519992 165.732,20.204 C166.044002,20.3560008 166.395998,20.4879994 166.788,20.6 C167.180002,20.7120006 167.567998,20.8319994 167.952,20.96 C169.488008,21.4720026 170.611996,22.1559957 171.324,23.012 C172.036004,23.8680043 172.392,24.9839931 172.392,26.36 C172.392,27.2880046 172.236002,28.1279962 171.924,28.88 C171.611998,29.6320038 171.156003,30.2759973 170.556,30.812 C169.955997,31.3480027 169.220004,31.7639985 168.348,32.06 C167.475996,32.3560015 166.488006,32.504 165.384,32.504 C163.095989,32.504 160.97601,31.8240068 159.024,30.464 L161.04,26.672 C161.744004,27.2960031 162.439997,27.7599985 163.128,28.064 C163.816003,28.3680015 164.495997,28.52 165.168,28.52 C165.936004,28.52 166.507998,28.3440018 166.884,27.992 C167.260002,27.6399982 167.448,27.2400022 167.448,26.792 C167.448,26.5199986 167.4,26.284001 167.304,26.084 C167.208,25.883999 167.048001,25.7000008 166.824,25.532 C166.599999,25.3639992 166.308002,25.2080007 165.948,25.064 C165.587998,24.9199993 165.152003,24.7600009 164.64,24.584 C164.031997,24.391999 163.436003,24.1800012 162.852,23.948 C162.267997,23.7159988 161.748002,23.4080019 161.292,23.024 C160.835998,22.6399981 160.468001,22.1560029 160.188,21.572 C159.907999,20.9879971 159.768,20.2480045 159.768,19.352 C159.768,18.4559955 159.915999,17.6440036 160.212,16.916 C160.508001,16.1879964 160.923997,15.5640026 161.46,15.044 C161.996003,14.5239974 162.651996,14.1200014 163.428,13.832 C164.204004,13.5439986 165.071995,13.4 166.032,13.4 C166.928004,13.4 167.863995,13.5239988 168.84,13.772 C169.816005,14.0200012 170.751996,14.3839976 171.648,14.864 L169.776,18.536 Z"/>
    <path fill="#FFF" d="M26,22.952 C26,23.6720036 26.1359986,24.335997 26.408,24.944 C26.6800014,25.552003 27.0479977,26.0799978 27.512,26.528 C27.9760023,26.9760022 28.5159969,27.3239988 29.132,27.572 C29.7480031,27.8200012 30.3999966,27.944 31.088,27.944 C31.7760034,27.944 32.4279969,27.8200012 33.044,27.572 C33.6600031,27.3239988 34.2039976,26.9760022 34.676,26.528 C35.1480024,26.0799978 35.5199986,25.552003 35.792,24.944 C36.0640014,24.335997 36.2,23.6720036 36.2,22.952 C36.2,22.2319964 36.0640014,21.568003 35.792,20.96 C35.5199986,20.351997 35.1480024,19.8240022 34.676,19.376 C34.2039976,18.9279978 33.6600031,18.5800012 33.044,18.332 C32.4279969,18.0839988 31.7760034,17.96 31.088,17.96 C30.3999966,17.96 29.7480031,18.0839988 29.132,18.332 C28.5159969,18.5800012 27.9760023,18.9279978 27.512,19.376 C27.0479977,19.8240022 26.6800014,20.351997 26.408,20.96 C26.1359986,21.568003 26,22.2319964 26,22.952 Z"/>
    <path fill="#FFF" d="M21.08,22.952 C21.08,21.6079933 21.3279975,20.3560058 21.824,19.196 C22.3200025,18.0359942 23.0079956,17.0240043 23.888,16.16 C24.7680044,15.2959957 25.8199939,14.6200024 27.044,14.132 C28.2680061,13.6439976 29.6159926,13.4 31.088,13.4 C32.5440073,13.4 33.8879938,13.6439976 35.12,14.132 C36.3520062,14.6200024 37.4119956,15.2959957 38.3,16.16 C39.1880044,17.0240043 39.8799975,18.0359942 40.376,19.196 C40.8720025,20.3560058 41.12,21.6079933 41.12,22.952 C41.12,24.2960067 40.8720025,25.5479942 40.376,26.708 C39.8799975,27.8680058 39.1880044,28.8799957 38.3,29.744 C37.4119956,30.6080043 36.3520062,31.2839976 35.12,31.772 C33.8879938,32.2600024 32.5440073,32.504 31.088,32.504 C29.6159926,32.504 28.2680061,32.2600024 27.044,31.772 C25.8199939,31.2839976 24.7680044,30.6080043 23.888,29.744 C23.0079956,28.8799957 22.3200025,27.8680058 21.824,26.708 C21.3279975,25.5479942 21.08,24.2960067 21.08,22.952 Z"/>
  </g>
</svg>
